<?xml version="1.0" encoding="utf-8"?>
<!-- Generator: Adobe Illustrator 14.0.0, SVG Export Plug-In . SVG Version: 6.00 Build 43363)  -->
<!DOCTYPE svg PUBLIC "-//W3C//DTD SVG 1.1//EN" "http://www.w3.org/Graphics/SVG/1.1/DTD/svg11.dtd">
<svg version="1.1" id="Layer_1" xmlns="http://www.w3.org/2000/svg" xmlns:xlink="http://www.w3.org/1999/xlink" x="0px" y="0px"
	 width="331.737px" height="404.086px" viewBox="0 0 331.737 404.086" enable-background="new 0 0 331.737 404.086"
	 xml:space="preserve">
<g>
	<defs>
		<rect id="SVGID_1_" width="331.737" height="404.086"/>
	</defs>
	<clipPath id="SVGID_2_">
		<use xlink:href="#SVGID_1_"  overflow="visible"/>
	</clipPath>
	<path clip-path="url(#SVGID_2_)" fill="#0B4574" d="M239.307,127.343c0,4.865,3.938,8.805,8.809,8.805h69.479
		c4.857,0,8.807-3.94,8.807-8.805V27.526c0-4.864-3.949-8.808-8.807-8.808h-69.479c-4.871,0-8.809,3.944-8.809,8.808V127.343z"/>
	<path clip-path="url(#SVGID_2_)" fill="#008AC6" d="M239.307,248.079c0,4.866,3.938,8.808,8.809,8.808h69.479
		c4.857,0,8.807-3.941,8.807-8.808v-99.817c0-4.867-3.949-8.81-8.807-8.81h-69.479c-4.871,0-8.809,3.943-8.809,8.81V248.079z"/>
	<path clip-path="url(#SVGID_2_)" fill="#0396B7" d="M239.307,368.815c0,4.864,3.938,8.808,8.809,8.808h69.479
		c4.857,0,8.807-3.943,8.807-8.808v-99.817c0-4.869-3.949-8.807-8.807-8.807h-69.479c-4.871,0-8.809,3.938-8.809,8.807V368.815z"/>
	<path clip-path="url(#SVGID_2_)" fill="#E4E7EA" d="M309.593,386.003c0,6.396-5.187,11.583-11.587,11.583H32.657
		c-6.399,0-11.587-5.187-11.587-11.583V18.085c0-6.398,5.188-11.585,11.587-11.585h265.35c6.4,0,11.587,5.187,11.587,11.585V386.003
		z"/>
	<path clip-path="url(#SVGID_2_)" fill="#F4F4F4" stroke="#D8D8D8" d="M247.963,174.69c0,4.866-3.94,8.802-8.807,8.802H102.21
		c-4.865,0-8.813-3.936-8.813-8.802V89.585c0-4.865,3.948-8.806,8.813-8.806h136.947c4.866,0,8.807,3.941,8.807,8.806V174.69z"/>
</g>
<g>
	<defs>
		<path id="SVGID_3_" d="M43.227,28.417c-0.366,0.122-0.758,0.207-1.169,0.207c-0.923,0-1.743-0.329-2.376-0.838h-0.281v11.913
			c0,1.294,1.192,2.343,2.657,2.343c1.461,0,2.65-1.049,2.65-2.343v-8.254v-2.998c0-0.268-0.204-0.452-0.459-0.555
			c-0.097-0.038-0.176-0.106-0.289-0.106C43.564,27.786,43.247,28.068,43.227,28.417"/>
	</defs>
	<clipPath id="SVGID_4_">
		<use xlink:href="#SVGID_3_"  overflow="visible"/>
	</clipPath>
	
		<linearGradient id="SVGID_5_" gradientUnits="userSpaceOnUse" x1="0" y1="404.0859" x2="1" y2="404.0859" gradientTransform="matrix(4.6593 0 0 -4.6593 40.293 1917.6847)">
		<stop  offset="0" style="stop-color:#000000"/>
		<stop  offset="0.1129" style="stop-color:#000000"/>
		<stop  offset="0.5054" style="stop-color:#D9D9D9"/>
		<stop  offset="0.7043" style="stop-color:#4F4F4F"/>
		<stop  offset="0.8441" style="stop-color:#000000"/>
		<stop  offset="1" style="stop-color:#000000"/>
	</linearGradient>
	<rect x="39.401" y="27.786" clip-path="url(#SVGID_4_)" fill="url(#SVGID_5_)" width="5.307" height="14.256"/>
</g>
<g>
	<defs>
		<path id="SVGID_6_" d="M21.069,25.409v11.41c17.32-0.868,22.32,3.706,22.32,3.706v-11.41c0,0-4.173-3.815-18.094-3.815
			C23.975,25.3,22.569,25.334,21.069,25.409"/>
	</defs>
	<clipPath id="SVGID_7_">
		<use xlink:href="#SVGID_6_"  overflow="visible"/>
	</clipPath>
	
		<linearGradient id="SVGID_8_" gradientUnits="userSpaceOnUse" x1="0" y1="404.0859" x2="1" y2="404.0859" gradientTransform="matrix(22.3193 0 0 -22.3193 21.0781 9051.8438)">
		<stop  offset="0" style="stop-color:#000000"/>
		<stop  offset="0.1828" style="stop-color:#000000"/>
		<stop  offset="0.2151" style="stop-color:#231F20"/>
		<stop  offset="0.2527" style="stop-color:#3A3738"/>
		<stop  offset="0.2957" style="stop-color:#535151"/>
		<stop  offset="0.3602" style="stop-color:#423F40"/>
		<stop  offset="0.4516" style="stop-color:#231F20"/>
		<stop  offset="0.4839" style="stop-color:#545152"/>
		<stop  offset="0.6129" style="stop-color:#969495"/>
		<stop  offset="0.7957" style="stop-color:#231F20"/>
		<stop  offset="0.9355" style="stop-color:#231F20"/>
		<stop  offset="1" style="stop-color:#231F20"/>
	</linearGradient>
	<rect x="21.069" y="25.3" clip-path="url(#SVGID_7_)" fill="url(#SVGID_8_)" width="22.32" height="15.225"/>
</g>
<g>
	<defs>
		<path id="SVGID_9_" d="M43.227,54.129c-0.366,0.122-0.758,0.207-1.169,0.207c-0.923,0-1.743-0.327-2.376-0.838h-0.281v11.914
			c0,1.292,1.192,2.343,2.657,2.343c1.461,0,2.65-1.051,2.65-2.343v-8.256v-2.997c0-0.267-0.204-0.452-0.459-0.555
			c-0.097-0.038-0.176-0.106-0.289-0.106C43.564,53.498,43.247,53.781,43.227,54.129"/>
	</defs>
	<clipPath id="SVGID_10_">
		<use xlink:href="#SVGID_9_"  overflow="visible"/>
	</clipPath>
	
		<linearGradient id="SVGID_11_" gradientUnits="userSpaceOnUse" x1="0" y1="404.0869" x2="1" y2="404.0869" gradientTransform="matrix(4.6593 0 0 -4.6593 40.293 1943.3995)">
		<stop  offset="0" style="stop-color:#000000"/>
		<stop  offset="0.1129" style="stop-color:#000000"/>
		<stop  offset="0.5054" style="stop-color:#D9D9D9"/>
		<stop  offset="0.7043" style="stop-color:#4F4F4F"/>
		<stop  offset="0.8441" style="stop-color:#000000"/>
		<stop  offset="1" style="stop-color:#000000"/>
	</linearGradient>
	<rect x="39.401" y="53.498" clip-path="url(#SVGID_10_)" fill="url(#SVGID_11_)" width="5.307" height="14.257"/>
</g>
<g>
	<defs>
		<path id="SVGID_12_" d="M21.069,51.122v11.409c17.32-0.868,22.32,3.705,22.32,3.705V54.828c0,0-4.171-3.815-18.088-3.815
			C23.98,51.012,22.571,51.047,21.069,51.122"/>
	</defs>
	<clipPath id="SVGID_13_">
		<use xlink:href="#SVGID_12_"  overflow="visible"/>
	</clipPath>
	
		<linearGradient id="SVGID_14_" gradientUnits="userSpaceOnUse" x1="0" y1="404.0859" x2="1" y2="404.0859" gradientTransform="matrix(22.3193 0 0 -22.3193 21.0781 9077.5469)">
		<stop  offset="0" style="stop-color:#000000"/>
		<stop  offset="0.1828" style="stop-color:#000000"/>
		<stop  offset="0.2151" style="stop-color:#231F20"/>
		<stop  offset="0.2527" style="stop-color:#3A3738"/>
		<stop  offset="0.2957" style="stop-color:#535151"/>
		<stop  offset="0.3602" style="stop-color:#423F40"/>
		<stop  offset="0.4516" style="stop-color:#231F20"/>
		<stop  offset="0.4839" style="stop-color:#545152"/>
		<stop  offset="0.6129" style="stop-color:#969495"/>
		<stop  offset="0.7957" style="stop-color:#231F20"/>
		<stop  offset="0.9355" style="stop-color:#231F20"/>
		<stop  offset="1" style="stop-color:#231F20"/>
	</linearGradient>
	<rect x="21.069" y="51.012" clip-path="url(#SVGID_13_)" fill="url(#SVGID_14_)" width="22.32" height="15.224"/>
</g>
<g>
	<defs>
		<path id="SVGID_15_" d="M43.227,79.842c-0.366,0.121-0.758,0.206-1.169,0.206c-0.923,0-1.743-0.328-2.376-0.837h-0.281v11.914
			c0,1.293,1.192,2.342,2.657,2.342c1.461,0,2.65-1.049,2.65-2.342v-8.257v-2.997c0-0.266-0.204-0.45-0.459-0.555
			c-0.097-0.038-0.176-0.105-0.289-0.105C43.564,79.211,43.247,79.493,43.227,79.842"/>
	</defs>
	<clipPath id="SVGID_16_">
		<use xlink:href="#SVGID_15_"  overflow="visible"/>
	</clipPath>
	
		<linearGradient id="SVGID_17_" gradientUnits="userSpaceOnUse" x1="0" y1="404.0859" x2="1" y2="404.0859" gradientTransform="matrix(4.6593 0 0 -4.6593 40.293 1969.1105)">
		<stop  offset="0" style="stop-color:#000000"/>
		<stop  offset="0.1129" style="stop-color:#000000"/>
		<stop  offset="0.5054" style="stop-color:#D9D9D9"/>
		<stop  offset="0.7043" style="stop-color:#4F4F4F"/>
		<stop  offset="0.8441" style="stop-color:#000000"/>
		<stop  offset="1" style="stop-color:#000000"/>
	</linearGradient>
	<rect x="39.401" y="79.211" clip-path="url(#SVGID_16_)" fill="url(#SVGID_17_)" width="5.307" height="14.256"/>
</g>
<g>
	<defs>
		<path id="SVGID_18_" d="M21.069,76.834v11.41c17.32-0.867,22.32,3.707,22.32,3.707V80.54c0,0-4.172-3.815-18.088-3.815
			C23.979,76.725,22.571,76.759,21.069,76.834"/>
	</defs>
	<clipPath id="SVGID_19_">
		<use xlink:href="#SVGID_18_"  overflow="visible"/>
	</clipPath>
	
		<linearGradient id="SVGID_20_" gradientUnits="userSpaceOnUse" x1="0" y1="404.0859" x2="1" y2="404.0859" gradientTransform="matrix(22.3193 0 0 -22.3193 21.0781 9103.2656)">
		<stop  offset="0" style="stop-color:#000000"/>
		<stop  offset="0.1828" style="stop-color:#000000"/>
		<stop  offset="0.2151" style="stop-color:#231F20"/>
		<stop  offset="0.2527" style="stop-color:#3A3738"/>
		<stop  offset="0.2957" style="stop-color:#535151"/>
		<stop  offset="0.3602" style="stop-color:#423F40"/>
		<stop  offset="0.4516" style="stop-color:#231F20"/>
		<stop  offset="0.4839" style="stop-color:#545152"/>
		<stop  offset="0.6129" style="stop-color:#969495"/>
		<stop  offset="0.7957" style="stop-color:#231F20"/>
		<stop  offset="0.9355" style="stop-color:#231F20"/>
		<stop  offset="1" style="stop-color:#231F20"/>
	</linearGradient>
	<rect x="21.069" y="76.725" clip-path="url(#SVGID_19_)" fill="url(#SVGID_20_)" width="22.32" height="15.226"/>
</g>
<g>
	<defs>
		<path id="SVGID_21_" d="M43.227,105.554c-0.366,0.122-0.758,0.205-1.169,0.205c-0.923,0-1.743-0.327-2.376-0.835h-0.281v11.912
			c0,1.294,1.192,2.343,2.657,2.343c1.461,0,2.65-1.049,2.65-2.343v-8.254v-2.998c0-0.267-0.204-0.452-0.459-0.556
			c-0.097-0.039-0.176-0.104-0.289-0.104C43.564,104.924,43.247,105.207,43.227,105.554"/>
	</defs>
	<clipPath id="SVGID_22_">
		<use xlink:href="#SVGID_21_"  overflow="visible"/>
	</clipPath>
	
		<linearGradient id="SVGID_23_" gradientUnits="userSpaceOnUse" x1="0" y1="404.0859" x2="1" y2="404.0859" gradientTransform="matrix(4.6593 0 0 -4.6593 40.293 1994.8214)">
		<stop  offset="0" style="stop-color:#000000"/>
		<stop  offset="0.1129" style="stop-color:#000000"/>
		<stop  offset="0.5054" style="stop-color:#D9D9D9"/>
		<stop  offset="0.7043" style="stop-color:#4F4F4F"/>
		<stop  offset="0.8441" style="stop-color:#000000"/>
		<stop  offset="1" style="stop-color:#000000"/>
	</linearGradient>
	<rect x="39.401" y="104.924" clip-path="url(#SVGID_22_)" fill="url(#SVGID_23_)" width="5.307" height="14.255"/>
</g>
<g>
	<defs>
		<path id="SVGID_24_" d="M21.069,102.546v11.41c17.32-0.868,22.32,3.706,22.32,3.706v-11.409c0,0-4.172-3.817-18.098-3.817
			C23.973,102.436,22.567,102.471,21.069,102.546"/>
	</defs>
	<clipPath id="SVGID_25_">
		<use xlink:href="#SVGID_24_"  overflow="visible"/>
	</clipPath>
	
		<linearGradient id="SVGID_26_" gradientUnits="userSpaceOnUse" x1="0" y1="404.0859" x2="1" y2="404.0859" gradientTransform="matrix(22.3193 0 0 -22.3193 21.0781 9128.9688)">
		<stop  offset="0" style="stop-color:#000000"/>
		<stop  offset="0.1828" style="stop-color:#000000"/>
		<stop  offset="0.2151" style="stop-color:#231F20"/>
		<stop  offset="0.2527" style="stop-color:#3A3738"/>
		<stop  offset="0.2957" style="stop-color:#535151"/>
		<stop  offset="0.3602" style="stop-color:#423F40"/>
		<stop  offset="0.4516" style="stop-color:#231F20"/>
		<stop  offset="0.4839" style="stop-color:#545152"/>
		<stop  offset="0.6129" style="stop-color:#969495"/>
		<stop  offset="0.7957" style="stop-color:#231F20"/>
		<stop  offset="0.9355" style="stop-color:#231F20"/>
		<stop  offset="1" style="stop-color:#231F20"/>
	</linearGradient>
	<rect x="21.069" y="102.436" clip-path="url(#SVGID_25_)" fill="url(#SVGID_26_)" width="22.32" height="15.226"/>
</g>
<g>
	<defs>
		<path id="SVGID_27_" d="M43.227,131.265c-0.366,0.123-0.758,0.207-1.169,0.207c-0.923,0-1.743-0.328-2.376-0.837h-0.281v11.913
			c0,1.296,1.192,2.343,2.657,2.343c1.461,0,2.65-1.047,2.65-2.343v-8.253v-3c0-0.266-0.204-0.451-0.459-0.554
			c-0.097-0.038-0.176-0.106-0.289-0.106C43.564,130.635,43.247,130.92,43.227,131.265"/>
	</defs>
	<clipPath id="SVGID_28_">
		<use xlink:href="#SVGID_27_"  overflow="visible"/>
	</clipPath>
	
		<linearGradient id="SVGID_29_" gradientUnits="userSpaceOnUse" x1="0" y1="404.0859" x2="1" y2="404.0859" gradientTransform="matrix(4.6593 0 0 -4.6593 40.293 2020.5323)">
		<stop  offset="0" style="stop-color:#000000"/>
		<stop  offset="0.1129" style="stop-color:#000000"/>
		<stop  offset="0.5054" style="stop-color:#D9D9D9"/>
		<stop  offset="0.7043" style="stop-color:#4F4F4F"/>
		<stop  offset="0.8441" style="stop-color:#000000"/>
		<stop  offset="1" style="stop-color:#000000"/>
	</linearGradient>
	<rect x="39.401" y="130.635" clip-path="url(#SVGID_28_)" fill="url(#SVGID_29_)" width="5.307" height="14.256"/>
</g>
<g>
	<defs>
		<path id="SVGID_30_" d="M21.069,128.258v11.41c17.32-0.866,22.32,3.707,22.32,3.707v-11.41c0,0-4.172-3.816-18.098-3.816
			C23.973,128.149,22.567,128.183,21.069,128.258"/>
	</defs>
	<clipPath id="SVGID_31_">
		<use xlink:href="#SVGID_30_"  overflow="visible"/>
	</clipPath>
	
		<linearGradient id="SVGID_32_" gradientUnits="userSpaceOnUse" x1="0" y1="404.0859" x2="1" y2="404.0859" gradientTransform="matrix(22.3193 0 0 -22.3193 21.0781 9154.6875)">
		<stop  offset="0" style="stop-color:#000000"/>
		<stop  offset="0.1828" style="stop-color:#000000"/>
		<stop  offset="0.2151" style="stop-color:#231F20"/>
		<stop  offset="0.2527" style="stop-color:#3A3738"/>
		<stop  offset="0.2957" style="stop-color:#535151"/>
		<stop  offset="0.3602" style="stop-color:#423F40"/>
		<stop  offset="0.4516" style="stop-color:#231F20"/>
		<stop  offset="0.4839" style="stop-color:#545152"/>
		<stop  offset="0.6129" style="stop-color:#969495"/>
		<stop  offset="0.7957" style="stop-color:#231F20"/>
		<stop  offset="0.9355" style="stop-color:#231F20"/>
		<stop  offset="1" style="stop-color:#231F20"/>
	</linearGradient>
	<rect x="21.069" y="128.149" clip-path="url(#SVGID_31_)" fill="url(#SVGID_32_)" width="22.32" height="15.226"/>
</g>
<g>
	<defs>
		<path id="SVGID_33_" d="M43.227,156.977c-0.366,0.123-0.758,0.209-1.169,0.209c-0.923,0-1.743-0.328-2.376-0.838h-0.281v11.912
			c0,1.296,1.192,2.344,2.657,2.344c1.461,0,2.65-1.048,2.65-2.344v-8.253v-2.999c0-0.268-0.204-0.452-0.459-0.555
			c-0.097-0.039-0.176-0.105-0.289-0.105C43.564,156.348,43.247,156.631,43.227,156.977"/>
	</defs>
	<clipPath id="SVGID_34_">
		<use xlink:href="#SVGID_33_"  overflow="visible"/>
	</clipPath>
	
		<linearGradient id="SVGID_35_" gradientUnits="userSpaceOnUse" x1="0" y1="404.0859" x2="1" y2="404.0859" gradientTransform="matrix(4.6593 0 0 -4.6593 40.293 2046.2472)">
		<stop  offset="0" style="stop-color:#000000"/>
		<stop  offset="0.1129" style="stop-color:#000000"/>
		<stop  offset="0.5054" style="stop-color:#D9D9D9"/>
		<stop  offset="0.7043" style="stop-color:#4F4F4F"/>
		<stop  offset="0.8441" style="stop-color:#000000"/>
		<stop  offset="1" style="stop-color:#000000"/>
	</linearGradient>
	<rect x="39.401" y="156.348" clip-path="url(#SVGID_34_)" fill="url(#SVGID_35_)" width="5.307" height="14.256"/>
</g>
<g>
	<defs>
		<path id="SVGID_36_" d="M21.069,153.971v11.411c17.32-0.868,22.32,3.705,22.32,3.705v-11.411c0,0-4.17-3.814-18.087-3.814
			C23.981,153.862,22.571,153.896,21.069,153.971"/>
	</defs>
	<clipPath id="SVGID_37_">
		<use xlink:href="#SVGID_36_"  overflow="visible"/>
	</clipPath>
	
		<linearGradient id="SVGID_38_" gradientUnits="userSpaceOnUse" x1="0" y1="404.0859" x2="1" y2="404.0859" gradientTransform="matrix(22.3193 0 0 -22.3193 21.0781 9180.4062)">
		<stop  offset="0" style="stop-color:#000000"/>
		<stop  offset="0.1828" style="stop-color:#000000"/>
		<stop  offset="0.2151" style="stop-color:#231F20"/>
		<stop  offset="0.2527" style="stop-color:#3A3738"/>
		<stop  offset="0.2957" style="stop-color:#535151"/>
		<stop  offset="0.3602" style="stop-color:#423F40"/>
		<stop  offset="0.4516" style="stop-color:#231F20"/>
		<stop  offset="0.4839" style="stop-color:#545152"/>
		<stop  offset="0.6129" style="stop-color:#969495"/>
		<stop  offset="0.7957" style="stop-color:#231F20"/>
		<stop  offset="0.9355" style="stop-color:#231F20"/>
		<stop  offset="1" style="stop-color:#231F20"/>
	</linearGradient>
	<rect x="21.069" y="153.862" clip-path="url(#SVGID_37_)" fill="url(#SVGID_38_)" width="22.32" height="15.225"/>
</g>
<g>
	<defs>
		<path id="SVGID_39_" d="M43.227,182.691c-0.366,0.12-0.758,0.207-1.169,0.207c-0.923,0-1.743-0.329-2.376-0.837h-0.281v11.912
			c0,1.294,1.192,2.344,2.657,2.344c1.461,0,2.65-1.05,2.65-2.344v-8.255v-2.999c0-0.265-0.204-0.45-0.459-0.551
			c-0.097-0.042-0.176-0.107-0.289-0.107C43.564,182.061,43.247,182.343,43.227,182.691"/>
	</defs>
	<clipPath id="SVGID_40_">
		<use xlink:href="#SVGID_39_"  overflow="visible"/>
	</clipPath>
	
		<linearGradient id="SVGID_41_" gradientUnits="userSpaceOnUse" x1="0" y1="404.0859" x2="1" y2="404.0859" gradientTransform="matrix(4.6593 0 0 -4.6593 40.293 2071.958)">
		<stop  offset="0" style="stop-color:#000000"/>
		<stop  offset="0.1129" style="stop-color:#000000"/>
		<stop  offset="0.5054" style="stop-color:#D9D9D9"/>
		<stop  offset="0.7043" style="stop-color:#4F4F4F"/>
		<stop  offset="0.8441" style="stop-color:#000000"/>
		<stop  offset="1" style="stop-color:#000000"/>
	</linearGradient>
	<rect x="39.401" y="182.061" clip-path="url(#SVGID_40_)" fill="url(#SVGID_41_)" width="5.307" height="14.256"/>
</g>
<g>
	<defs>
		<path id="SVGID_42_" d="M21.069,179.684v11.409c17.32-0.868,22.32,3.706,22.32,3.706v-11.411c0,0-4.17-3.814-18.087-3.814
			C23.981,179.574,22.571,179.608,21.069,179.684"/>
	</defs>
	<clipPath id="SVGID_43_">
		<use xlink:href="#SVGID_42_"  overflow="visible"/>
	</clipPath>
	
		<linearGradient id="SVGID_44_" gradientUnits="userSpaceOnUse" x1="0" y1="404.0859" x2="1" y2="404.0859" gradientTransform="matrix(22.3193 0 0 -22.3193 21.0781 9206.1094)">
		<stop  offset="0" style="stop-color:#000000"/>
		<stop  offset="0.1828" style="stop-color:#000000"/>
		<stop  offset="0.2151" style="stop-color:#231F20"/>
		<stop  offset="0.2527" style="stop-color:#3A3738"/>
		<stop  offset="0.2957" style="stop-color:#535151"/>
		<stop  offset="0.3602" style="stop-color:#423F40"/>
		<stop  offset="0.4516" style="stop-color:#231F20"/>
		<stop  offset="0.4839" style="stop-color:#545152"/>
		<stop  offset="0.6129" style="stop-color:#969495"/>
		<stop  offset="0.7957" style="stop-color:#231F20"/>
		<stop  offset="0.9355" style="stop-color:#231F20"/>
		<stop  offset="1" style="stop-color:#231F20"/>
	</linearGradient>
	<rect x="21.069" y="179.574" clip-path="url(#SVGID_43_)" fill="url(#SVGID_44_)" width="22.32" height="15.225"/>
</g>
<g>
	<defs>
		<path id="SVGID_45_" d="M43.227,208.403c-0.366,0.124-0.758,0.207-1.169,0.207c-0.923,0-1.743-0.329-2.376-0.838h-0.281v11.912
			c0,1.293,1.192,2.345,2.657,2.345c1.461,0,2.65-1.052,2.65-2.345v-8.255v-2.999c0-0.265-0.204-0.448-0.459-0.552
			c-0.097-0.039-0.176-0.106-0.289-0.106C43.564,207.772,43.247,208.055,43.227,208.403"/>
	</defs>
	<clipPath id="SVGID_46_">
		<use xlink:href="#SVGID_45_"  overflow="visible"/>
	</clipPath>
	
		<linearGradient id="SVGID_47_" gradientUnits="userSpaceOnUse" x1="0" y1="404.0859" x2="1" y2="404.0859" gradientTransform="matrix(4.6593 0 0 -4.6593 40.293 2097.6729)">
		<stop  offset="0" style="stop-color:#000000"/>
		<stop  offset="0.1129" style="stop-color:#000000"/>
		<stop  offset="0.5054" style="stop-color:#D9D9D9"/>
		<stop  offset="0.7043" style="stop-color:#4F4F4F"/>
		<stop  offset="0.8441" style="stop-color:#000000"/>
		<stop  offset="1" style="stop-color:#000000"/>
	</linearGradient>
	<rect x="39.401" y="207.773" clip-path="url(#SVGID_46_)" fill="url(#SVGID_47_)" width="5.307" height="14.256"/>
</g>
<g>
	<defs>
		<path id="SVGID_48_" d="M21.069,205.396v11.409c17.32-0.868,22.32,3.707,22.32,3.707v-11.409c0,0-4.172-3.816-18.095-3.816
			C23.975,205.286,22.568,205.321,21.069,205.396"/>
	</defs>
	<clipPath id="SVGID_49_">
		<use xlink:href="#SVGID_48_"  overflow="visible"/>
	</clipPath>
	
		<linearGradient id="SVGID_50_" gradientUnits="userSpaceOnUse" x1="0" y1="404.0869" x2="1" y2="404.0869" gradientTransform="matrix(22.3193 0 0 -22.3193 21.0781 9231.8281)">
		<stop  offset="0" style="stop-color:#000000"/>
		<stop  offset="0.1828" style="stop-color:#000000"/>
		<stop  offset="0.2151" style="stop-color:#231F20"/>
		<stop  offset="0.2527" style="stop-color:#3A3738"/>
		<stop  offset="0.2957" style="stop-color:#535151"/>
		<stop  offset="0.3602" style="stop-color:#423F40"/>
		<stop  offset="0.4516" style="stop-color:#231F20"/>
		<stop  offset="0.4839" style="stop-color:#545152"/>
		<stop  offset="0.6129" style="stop-color:#969495"/>
		<stop  offset="0.7957" style="stop-color:#231F20"/>
		<stop  offset="0.9355" style="stop-color:#231F20"/>
		<stop  offset="1" style="stop-color:#231F20"/>
	</linearGradient>
	<rect x="21.069" y="205.286" clip-path="url(#SVGID_49_)" fill="url(#SVGID_50_)" width="22.32" height="15.226"/>
</g>
<g>
	<defs>
		<path id="SVGID_51_" d="M43.227,234.115c-0.366,0.123-0.758,0.207-1.169,0.207c-0.923,0-1.743-0.33-2.376-0.836h-0.281v11.91
			c0,1.296,1.192,2.346,2.657,2.346c1.461,0,2.65-1.05,2.65-2.346v-8.252v-3.001c0-0.264-0.204-0.448-0.459-0.553
			c-0.097-0.041-0.176-0.104-0.289-0.104C43.564,233.486,43.247,233.766,43.227,234.115"/>
	</defs>
	<clipPath id="SVGID_52_">
		<use xlink:href="#SVGID_51_"  overflow="visible"/>
	</clipPath>
	
		<linearGradient id="SVGID_53_" gradientUnits="userSpaceOnUse" x1="0" y1="404.0859" x2="1" y2="404.0859" gradientTransform="matrix(4.6593 0 0 -4.6593 40.293 2123.3838)">
		<stop  offset="0" style="stop-color:#000000"/>
		<stop  offset="0.1129" style="stop-color:#000000"/>
		<stop  offset="0.5054" style="stop-color:#D9D9D9"/>
		<stop  offset="0.7043" style="stop-color:#4F4F4F"/>
		<stop  offset="0.8441" style="stop-color:#000000"/>
		<stop  offset="1" style="stop-color:#000000"/>
	</linearGradient>
	<rect x="39.401" y="233.486" clip-path="url(#SVGID_52_)" fill="url(#SVGID_53_)" width="5.307" height="14.256"/>
</g>
<g>
	<defs>
		<path id="SVGID_54_" d="M21.069,231.108v11.408c17.32-0.866,22.32,3.706,22.32,3.706v-11.408c0,0-4.172-3.815-18.095-3.815
			C23.975,230.999,22.568,231.033,21.069,231.108"/>
	</defs>
	<clipPath id="SVGID_55_">
		<use xlink:href="#SVGID_54_"  overflow="visible"/>
	</clipPath>
	
		<linearGradient id="SVGID_56_" gradientUnits="userSpaceOnUse" x1="0" y1="404.0859" x2="1" y2="404.0859" gradientTransform="matrix(22.3193 0 0 -22.3193 21.0781 9257.5312)">
		<stop  offset="0" style="stop-color:#000000"/>
		<stop  offset="0.1828" style="stop-color:#000000"/>
		<stop  offset="0.2151" style="stop-color:#231F20"/>
		<stop  offset="0.2527" style="stop-color:#3A3738"/>
		<stop  offset="0.2957" style="stop-color:#535151"/>
		<stop  offset="0.3602" style="stop-color:#423F40"/>
		<stop  offset="0.4516" style="stop-color:#231F20"/>
		<stop  offset="0.4839" style="stop-color:#545152"/>
		<stop  offset="0.6129" style="stop-color:#969495"/>
		<stop  offset="0.7957" style="stop-color:#231F20"/>
		<stop  offset="0.9355" style="stop-color:#231F20"/>
		<stop  offset="1" style="stop-color:#231F20"/>
	</linearGradient>
	<rect x="21.069" y="230.999" clip-path="url(#SVGID_55_)" fill="url(#SVGID_56_)" width="22.32" height="15.224"/>
</g>
<g>
	<defs>
		<path id="SVGID_57_" d="M43.227,259.829c-0.366,0.121-0.758,0.207-1.169,0.207c-0.923,0-1.743-0.33-2.376-0.837h-0.281v11.911
			c0,1.294,1.192,2.343,2.657,2.343c1.461,0,2.65-1.049,2.65-2.343v-8.255v-2.998c0-0.265-0.204-0.45-0.459-0.555
			c-0.097-0.037-0.176-0.104-0.289-0.104C43.564,259.199,43.247,259.479,43.227,259.829"/>
	</defs>
	<clipPath id="SVGID_58_">
		<use xlink:href="#SVGID_57_"  overflow="visible"/>
	</clipPath>
	
		<linearGradient id="SVGID_59_" gradientUnits="userSpaceOnUse" x1="0" y1="404.0859" x2="1" y2="404.0859" gradientTransform="matrix(4.6593 0 0 -4.6593 40.293 2149.0947)">
		<stop  offset="0" style="stop-color:#000000"/>
		<stop  offset="0.1129" style="stop-color:#000000"/>
		<stop  offset="0.5054" style="stop-color:#D9D9D9"/>
		<stop  offset="0.7043" style="stop-color:#4F4F4F"/>
		<stop  offset="0.8441" style="stop-color:#000000"/>
		<stop  offset="1" style="stop-color:#000000"/>
	</linearGradient>
	<rect x="39.401" y="259.199" clip-path="url(#SVGID_58_)" fill="url(#SVGID_59_)" width="5.307" height="14.254"/>
</g>
<g>
	<defs>
		<path id="SVGID_60_" d="M21.069,256.821v11.408c17.32-0.866,22.32,3.706,22.32,3.706v-11.409c0,0-4.172-3.814-18.091-3.815
			C23.978,256.711,22.57,256.746,21.069,256.821"/>
	</defs>
	<clipPath id="SVGID_61_">
		<use xlink:href="#SVGID_60_"  overflow="visible"/>
	</clipPath>
	
		<linearGradient id="SVGID_62_" gradientUnits="userSpaceOnUse" x1="0" y1="404.0859" x2="1" y2="404.0859" gradientTransform="matrix(22.3193 0 0 -22.3193 21.0781 9283.25)">
		<stop  offset="0" style="stop-color:#000000"/>
		<stop  offset="0.1828" style="stop-color:#000000"/>
		<stop  offset="0.2151" style="stop-color:#231F20"/>
		<stop  offset="0.2527" style="stop-color:#3A3738"/>
		<stop  offset="0.2957" style="stop-color:#535151"/>
		<stop  offset="0.3602" style="stop-color:#423F40"/>
		<stop  offset="0.4516" style="stop-color:#231F20"/>
		<stop  offset="0.4839" style="stop-color:#545152"/>
		<stop  offset="0.6129" style="stop-color:#969495"/>
		<stop  offset="0.7957" style="stop-color:#231F20"/>
		<stop  offset="0.9355" style="stop-color:#231F20"/>
		<stop  offset="1" style="stop-color:#231F20"/>
	</linearGradient>
	<rect x="21.069" y="256.711" clip-path="url(#SVGID_61_)" fill="url(#SVGID_62_)" width="22.32" height="15.225"/>
</g>
<g>
	<defs>
		<path id="SVGID_63_" d="M43.227,285.54c-0.366,0.122-0.758,0.207-1.169,0.207c-0.923,0-1.743-0.329-2.376-0.838h-0.281v11.913
			c0,1.294,1.192,2.346,2.657,2.346c1.461,0,2.65-1.052,2.65-2.346v-8.253v-2.998c0-0.267-0.204-0.452-0.459-0.557
			c-0.097-0.038-0.176-0.105-0.289-0.105C43.564,284.909,43.247,285.194,43.227,285.54"/>
	</defs>
	<clipPath id="SVGID_64_">
		<use xlink:href="#SVGID_63_"  overflow="visible"/>
	</clipPath>
	
		<linearGradient id="SVGID_65_" gradientUnits="userSpaceOnUse" x1="0" y1="404.0859" x2="1" y2="404.0859" gradientTransform="matrix(4.6593 0 0 -4.6593 40.293 2174.8096)">
		<stop  offset="0" style="stop-color:#000000"/>
		<stop  offset="0.1129" style="stop-color:#000000"/>
		<stop  offset="0.5054" style="stop-color:#D9D9D9"/>
		<stop  offset="0.7043" style="stop-color:#4F4F4F"/>
		<stop  offset="0.8441" style="stop-color:#000000"/>
		<stop  offset="1" style="stop-color:#000000"/>
	</linearGradient>
	<rect x="39.401" y="284.909" clip-path="url(#SVGID_64_)" fill="url(#SVGID_65_)" width="5.307" height="14.259"/>
</g>
<g>
	<defs>
		<path id="SVGID_66_" d="M21.069,282.532v11.41c17.32-0.868,22.32,3.705,22.32,3.705v-11.409c0,0-4.173-3.815-18.094-3.815
			C23.975,282.423,22.569,282.457,21.069,282.532"/>
	</defs>
	<clipPath id="SVGID_67_">
		<use xlink:href="#SVGID_66_"  overflow="visible"/>
	</clipPath>
	
		<linearGradient id="SVGID_68_" gradientUnits="userSpaceOnUse" x1="0" y1="404.0869" x2="1" y2="404.0869" gradientTransform="matrix(22.3193 0 0 -22.3193 21.0781 9308.9688)">
		<stop  offset="0" style="stop-color:#000000"/>
		<stop  offset="0.1828" style="stop-color:#000000"/>
		<stop  offset="0.2151" style="stop-color:#231F20"/>
		<stop  offset="0.2527" style="stop-color:#3A3738"/>
		<stop  offset="0.2957" style="stop-color:#535151"/>
		<stop  offset="0.3602" style="stop-color:#423F40"/>
		<stop  offset="0.4516" style="stop-color:#231F20"/>
		<stop  offset="0.4839" style="stop-color:#545152"/>
		<stop  offset="0.6129" style="stop-color:#969495"/>
		<stop  offset="0.7957" style="stop-color:#231F20"/>
		<stop  offset="0.9355" style="stop-color:#231F20"/>
		<stop  offset="1" style="stop-color:#231F20"/>
	</linearGradient>
	<rect x="21.069" y="282.423" clip-path="url(#SVGID_67_)" fill="url(#SVGID_68_)" width="22.32" height="15.225"/>
</g>
<g>
	<defs>
		<path id="SVGID_69_" d="M43.227,311.252c-0.366,0.122-0.758,0.207-1.169,0.207c-0.923,0-1.743-0.326-2.376-0.838h-0.281v11.914
			c0,1.293,1.192,2.345,2.657,2.345c1.461,0,2.65-1.052,2.65-2.345v-8.254v-2.998c0-0.267-0.204-0.453-0.459-0.555
			c-0.097-0.04-0.176-0.107-0.289-0.107C43.564,310.621,43.247,310.905,43.227,311.252"/>
	</defs>
	<clipPath id="SVGID_70_">
		<use xlink:href="#SVGID_69_"  overflow="visible"/>
	</clipPath>
	
		<linearGradient id="SVGID_71_" gradientUnits="userSpaceOnUse" x1="0" y1="404.0859" x2="1" y2="404.0859" gradientTransform="matrix(4.6593 0 0 -4.6593 40.293 2200.5205)">
		<stop  offset="0" style="stop-color:#000000"/>
		<stop  offset="0.1129" style="stop-color:#000000"/>
		<stop  offset="0.5054" style="stop-color:#D9D9D9"/>
		<stop  offset="0.7043" style="stop-color:#4F4F4F"/>
		<stop  offset="0.8441" style="stop-color:#000000"/>
		<stop  offset="1" style="stop-color:#000000"/>
	</linearGradient>
	<rect x="39.401" y="310.621" clip-path="url(#SVGID_70_)" fill="url(#SVGID_71_)" width="5.307" height="14.259"/>
</g>
<g>
	<defs>
		<path id="SVGID_72_" d="M21.069,308.244v11.411c17.32-0.867,22.32,3.706,22.32,3.706v-11.41c0,0-4.172-3.816-18.098-3.816
			C23.973,308.135,22.567,308.169,21.069,308.244"/>
	</defs>
	<clipPath id="SVGID_73_">
		<use xlink:href="#SVGID_72_"  overflow="visible"/>
	</clipPath>
	
		<linearGradient id="SVGID_74_" gradientUnits="userSpaceOnUse" x1="0" y1="404.0859" x2="1" y2="404.0859" gradientTransform="matrix(22.3193 0 0 -22.3193 21.0781 9334.6719)">
		<stop  offset="0" style="stop-color:#000000"/>
		<stop  offset="0.1828" style="stop-color:#000000"/>
		<stop  offset="0.2151" style="stop-color:#231F20"/>
		<stop  offset="0.2527" style="stop-color:#3A3738"/>
		<stop  offset="0.2957" style="stop-color:#535151"/>
		<stop  offset="0.3602" style="stop-color:#423F40"/>
		<stop  offset="0.4516" style="stop-color:#231F20"/>
		<stop  offset="0.4839" style="stop-color:#545152"/>
		<stop  offset="0.6129" style="stop-color:#969495"/>
		<stop  offset="0.7957" style="stop-color:#231F20"/>
		<stop  offset="0.9355" style="stop-color:#231F20"/>
		<stop  offset="1" style="stop-color:#231F20"/>
	</linearGradient>
	<rect x="21.069" y="308.135" clip-path="url(#SVGID_73_)" fill="url(#SVGID_74_)" width="22.32" height="15.227"/>
</g>
<g>
	<defs>
		<path id="SVGID_75_" d="M43.227,336.963c-0.366,0.125-0.758,0.207-1.169,0.207c-0.923,0-1.743-0.325-2.376-0.835h-0.281v11.912
			c0,1.295,1.192,2.347,2.657,2.347c1.461,0,2.65-1.052,2.65-2.347v-8.255v-2.995c0-0.27-0.204-0.453-0.459-0.56
			c-0.097-0.035-0.176-0.103-0.289-0.103C43.564,336.335,43.247,336.617,43.227,336.963"/>
	</defs>
	<clipPath id="SVGID_76_">
		<use xlink:href="#SVGID_75_"  overflow="visible"/>
	</clipPath>
	
		<linearGradient id="SVGID_77_" gradientUnits="userSpaceOnUse" x1="0" y1="404.0869" x2="1" y2="404.0869" gradientTransform="matrix(4.6593 0 0 -4.6593 40.293 2226.2354)">
		<stop  offset="0" style="stop-color:#000000"/>
		<stop  offset="0.1129" style="stop-color:#000000"/>
		<stop  offset="0.5054" style="stop-color:#D9D9D9"/>
		<stop  offset="0.7043" style="stop-color:#4F4F4F"/>
		<stop  offset="0.8441" style="stop-color:#000000"/>
		<stop  offset="1" style="stop-color:#000000"/>
	</linearGradient>
	<rect x="39.401" y="336.335" clip-path="url(#SVGID_76_)" fill="url(#SVGID_77_)" width="5.307" height="14.259"/>
</g>
<g>
	<defs>
		<path id="SVGID_78_" d="M21.069,333.958v11.407c17.32-0.866,22.32,3.708,22.32,3.708v-11.408c0,0-4.171-3.816-18.086-3.817
			C23.981,333.848,22.572,333.883,21.069,333.958"/>
	</defs>
	<clipPath id="SVGID_79_">
		<use xlink:href="#SVGID_78_"  overflow="visible"/>
	</clipPath>
	
		<linearGradient id="SVGID_80_" gradientUnits="userSpaceOnUse" x1="0" y1="404.0859" x2="1" y2="404.0859" gradientTransform="matrix(22.3193 0 0 -22.3193 21.0781 9360.3906)">
		<stop  offset="0" style="stop-color:#000000"/>
		<stop  offset="0.1828" style="stop-color:#000000"/>
		<stop  offset="0.2151" style="stop-color:#231F20"/>
		<stop  offset="0.2527" style="stop-color:#3A3738"/>
		<stop  offset="0.2957" style="stop-color:#535151"/>
		<stop  offset="0.3602" style="stop-color:#423F40"/>
		<stop  offset="0.4516" style="stop-color:#231F20"/>
		<stop  offset="0.4839" style="stop-color:#545152"/>
		<stop  offset="0.6129" style="stop-color:#969495"/>
		<stop  offset="0.7957" style="stop-color:#231F20"/>
		<stop  offset="0.9355" style="stop-color:#231F20"/>
		<stop  offset="1" style="stop-color:#231F20"/>
	</linearGradient>
	<rect x="21.069" y="333.848" clip-path="url(#SVGID_79_)" fill="url(#SVGID_80_)" width="22.32" height="15.226"/>
</g>
<g>
	<defs>
		<path id="SVGID_81_" d="M43.227,362.678c-0.366,0.123-0.758,0.205-1.169,0.205c-0.923,0-1.743-0.328-2.376-0.837h-0.281v11.913
			c0,1.294,1.192,2.343,2.657,2.343c1.461,0,2.65-1.049,2.65-2.343v-8.252v-3.001c0-0.268-0.204-0.45-0.459-0.552
			c-0.097-0.04-0.176-0.108-0.289-0.108C43.564,362.046,43.247,362.33,43.227,362.678"/>
	</defs>
	<clipPath id="SVGID_82_">
		<use xlink:href="#SVGID_81_"  overflow="visible"/>
	</clipPath>
	
		<linearGradient id="SVGID_83_" gradientUnits="userSpaceOnUse" x1="0" y1="404.0859" x2="1" y2="404.0859" gradientTransform="matrix(4.6593 0 0 -4.6593 40.293 2251.9463)">
		<stop  offset="0" style="stop-color:#000000"/>
		<stop  offset="0.1129" style="stop-color:#000000"/>
		<stop  offset="0.5054" style="stop-color:#D9D9D9"/>
		<stop  offset="0.7043" style="stop-color:#4F4F4F"/>
		<stop  offset="0.8441" style="stop-color:#000000"/>
		<stop  offset="1" style="stop-color:#000000"/>
	</linearGradient>
	<rect x="39.401" y="362.046" clip-path="url(#SVGID_82_)" fill="url(#SVGID_83_)" width="5.307" height="14.256"/>
</g>
<g>
	<defs>
		<path id="SVGID_84_" d="M21.069,359.67v11.409c17.32-0.867,22.32,3.707,22.32,3.707v-11.41c0,0-4.173-3.815-18.094-3.815
			C23.975,359.561,22.569,359.595,21.069,359.67"/>
	</defs>
	<clipPath id="SVGID_85_">
		<use xlink:href="#SVGID_84_"  overflow="visible"/>
	</clipPath>
	
		<linearGradient id="SVGID_86_" gradientUnits="userSpaceOnUse" x1="0" y1="404.0859" x2="1" y2="404.0859" gradientTransform="matrix(22.3193 0 0 -22.3193 21.0781 9386.0938)">
		<stop  offset="0" style="stop-color:#000000"/>
		<stop  offset="0.1828" style="stop-color:#000000"/>
		<stop  offset="0.2151" style="stop-color:#231F20"/>
		<stop  offset="0.2527" style="stop-color:#3A3738"/>
		<stop  offset="0.2957" style="stop-color:#535151"/>
		<stop  offset="0.3602" style="stop-color:#423F40"/>
		<stop  offset="0.4516" style="stop-color:#231F20"/>
		<stop  offset="0.4839" style="stop-color:#545152"/>
		<stop  offset="0.6129" style="stop-color:#969495"/>
		<stop  offset="0.7957" style="stop-color:#231F20"/>
		<stop  offset="0.9355" style="stop-color:#231F20"/>
		<stop  offset="1" style="stop-color:#231F20"/>
	</linearGradient>
	<rect x="21.069" y="359.561" clip-path="url(#SVGID_85_)" fill="url(#SVGID_86_)" width="22.32" height="15.226"/>
</g>
<g>
	<defs>
		<path id="SVGID_87_" d="M5.352,22.432v342.705v5.085v8.048c0,0-0.407,2.13,2.943,2.834l0.645-2.834h0.292h9.129v-4.26h2.708
			v-3.788V16.753C21.069,16.753,7.492,17.463,5.352,22.432"/>
	</defs>
	<clipPath id="SVGID_88_">
		<use xlink:href="#SVGID_87_"  overflow="visible"/>
	</clipPath>
	
		<linearGradient id="SVGID_89_" gradientUnits="userSpaceOnUse" x1="0" y1="404.0869" x2="1" y2="404.0869" gradientTransform="matrix(15.7329 0 0 -15.7329 5.3359 6556.3774)">
		<stop  offset="0" style="stop-color:#000000"/>
		<stop  offset="0.3065" style="stop-color:#000000"/>
		<stop  offset="0.3871" style="stop-color:#231F20"/>
		<stop  offset="0.4019" style="stop-color:#373436"/>
		<stop  offset="0.4191" style="stop-color:#464547"/>
		<stop  offset="0.4405" style="stop-color:#505052"/>
		<stop  offset="0.4706" style="stop-color:#565759"/>
		<stop  offset="0.5538" style="stop-color:#58595B"/>
		<stop  offset="0.7258" style="stop-color:#231F20"/>
		<stop  offset="0.7849" style="stop-color:#000000"/>
		<stop  offset="1" style="stop-color:#000000"/>
	</linearGradient>
	<rect x="4.945" y="16.753" clip-path="url(#SVGID_88_)" fill="url(#SVGID_89_)" width="16.124" height="364.351"/>
</g>
</svg>
