<?xml version="1.0" encoding="utf-8"?>
<!-- Generator: Adobe Illustrator 14.0.0, SVG Export Plug-In . SVG Version: 6.00 Build 43363)  -->
<!DOCTYPE svg PUBLIC "-//W3C//DTD SVG 1.1//EN" "http://www.w3.org/Graphics/SVG/1.1/DTD/svg11.dtd">
<svg version="1.1"
	 id="Layer_1" xmlns:cc="http://creativecommons.org/ns#" xmlns:rdf="http://www.w3.org/1999/02/22-rdf-syntax-ns#" xmlns:svg="http://www.w3.org/2000/svg" xmlns:dc="http://purl.org/dc/elements/1.1/" xmlns:sodipodi="http://sodipodi.sourceforge.net/DTD/sodipodi-0.dtd" xmlns:inkscape="http://www.inkscape.org/namespaces/inkscape"
	 xmlns="http://www.w3.org/2000/svg" xmlns:xlink="http://www.w3.org/1999/xlink" x="0px" y="0px" width="82px" height="82px"
	 viewBox="-10.491 -43 82 82" enable-background="new -10.491 -43 82 82" xml:space="preserve">
<g>
	<path fill="#E93E23" d="M7.983-10.672v31.155c0,2.086,1.396,3.775,3.119,3.775h38.813c1.723,0,3.118-1.689,3.118-3.775v-31.155
		H7.983z M18.985,21.141h-8.23v-8.229h8.23V21.141z M18.985,10.83h-8.23V2.6h8.23V10.83z M18.985,0.589h-8.23v-8.23h8.23V0.589z
		 M29.294,21.141h-8.23v-8.229h8.231L29.294,21.141L29.294,21.141z M29.294,10.83h-8.23V2.6h8.231L29.294,10.83L29.294,10.83z
		 M29.294,0.589h-8.23v-8.23h8.231L29.294,0.589L29.294,0.589z M39.606,21.141h-8.232v-8.229h8.232V21.141L39.606,21.141z
		 M39.606,10.83h-8.232V2.6h8.232V10.83L39.606,10.83z M39.606,0.589h-8.232v-8.23h8.232V0.589L39.606,0.589z M49.916,21.141h-8.23
		v-8.229h8.23V21.141z M49.916,10.83h-8.23V2.6h8.23V10.83z M49.916,0.589h-8.23v-8.23h8.23V0.589z"/>
	<path fill="#E93E23" d="M49.916-21.507h-7.669v-4.807c0-1.074-0.716-1.945-1.602-1.945c-0.887,0-1.603,0.871-1.603,1.945v4.807
		H21.626v-4.807c0-1.074-0.717-1.945-1.602-1.945c-0.886,0-1.603,0.871-1.603,1.945v4.807h-7.32c-1.723,0-3.119,1.691-3.119,3.775
		v5.499h45.05v-5.499C53.033-19.816,51.638-21.507,49.916-21.507z M20.026-14.399c-1.627,0-2.946-1.319-2.946-2.946
		c0-1.033,0.535-1.939,1.343-2.464v1.391c0,1.072,0.717,1.944,1.604,1.944c0.885,0,1.601-0.873,1.601-1.944v-1.391
		c0.809,0.525,1.344,1.435,1.344,2.464C22.97-15.718,21.651-14.399,20.026-14.399z M40.645-14.399c-1.627,0-2.947-1.319-2.947-2.946
		c0-1.033,0.539-1.939,1.348-2.464v1.391c0,1.072,0.715,1.944,1.602,1.944c0.885,0,1.603-0.873,1.603-1.944v-1.391
		c0.807,0.525,1.342,1.435,1.342,2.464C43.59-15.718,42.27-14.399,40.645-14.399z"/>
</g>
</svg>
