<?xml version="1.0" encoding="utf-8"?>
<!-- Generator: Adobe Illustrator 14.0.0, SVG Export Plug-In . SVG Version: 6.00 Build 43363)  -->
<!DOCTYPE svg PUBLIC "-//W3C//DTD SVG 1.1//EN" "http://www.w3.org/Graphics/SVG/1.1/DTD/svg11.dtd">
<svg version="1.1"
	 id="Layer_1" xmlns:cc="http://creativecommons.org/ns#" xmlns:rdf="http://www.w3.org/1999/02/22-rdf-syntax-ns#" xmlns:svg="http://www.w3.org/2000/svg" xmlns:dc="http://purl.org/dc/elements/1.1/" xmlns:sodipodi="http://sodipodi.sourceforge.net/DTD/sodipodi-0.dtd" xmlns:inkscape="http://www.inkscape.org/namespaces/inkscape"
	 xmlns="http://www.w3.org/2000/svg" xmlns:xlink="http://www.w3.org/1999/xlink" x="0px" y="0px" width="87.539px" height="30px"
	 viewBox="0 0 87.539 30" enable-background="new 0 0 87.539 30" xml:space="preserve">
<g>
	<path fill="#E93E23" d="M32.368,15.834c0,1.209-0.22,2.268-0.66,3.176c-0.441,0.911-1.074,1.61-1.9,2.102
		c-0.825,0.49-1.776,0.736-2.853,0.736c-1.04,0-1.964-0.238-2.773-0.716c-0.81-0.477-1.436-1.154-1.879-2.035
		c-0.443-0.877-0.665-1.871-0.665-2.985c0-1.198,0.225-2.253,0.673-3.166c0.447-0.912,1.092-1.611,1.93-2.1s1.81-0.732,2.911-0.732
		c1.008,0,1.912,0.24,2.712,0.719c0.799,0.48,1.416,1.156,1.851,2.026C32.15,13.728,32.368,14.721,32.368,15.834 M30.975,16.008
		c0-1.478-0.345-2.63-1.036-3.458c-0.692-0.828-1.655-1.242-2.889-1.242c-0.775,0-1.471,0.197-2.085,0.59
		c-0.614,0.393-1.09,0.95-1.429,1.674c-0.337,0.724-0.506,1.53-0.506,2.421c0,0.907,0.163,1.717,0.487,2.426
		c0.324,0.711,0.787,1.258,1.389,1.646c0.601,0.388,1.284,0.581,2.049,0.581c1.255,0,2.239-0.411,2.952-1.233
		C30.62,18.589,30.975,17.454,30.975,16.008 M38.073,10.793c-0.252-0.144-0.54-0.214-0.862-0.214c-0.908,0-1.361,0.573-1.361,1.718
		v1.25h1.899v1.099H35.85v7.003h-1.298v-7.003h-1.377v-1.099h1.377v-1.313c0-0.825,0.242-1.489,0.728-1.995
		c0.485-0.506,1.104-0.76,1.852-0.76c0.396,0,0.709,0.047,0.941,0.144V10.793L38.073,10.793L38.073,10.793z"/>
	<path fill="#E93E23" d="M42.545,10.793c-0.253-0.144-0.54-0.214-0.862-0.214c-0.907,0-1.361,0.573-1.361,1.718v1.25h1.898v1.099
		h-1.898v7.003h-1.298v-7.003h-1.377v-1.099h1.377v-1.313c0-0.825,0.243-1.489,0.728-1.995c0.486-0.506,1.103-0.76,1.852-0.76
		c0.396,0,0.709,0.047,0.941,0.144V10.793L42.545,10.793z M44.939,10.644c0,0.243-0.085,0.444-0.253,0.604
		c-0.17,0.162-0.37,0.241-0.602,0.241c-0.238,0-0.438-0.077-0.601-0.233c-0.164-0.155-0.246-0.361-0.246-0.613
		c0-0.227,0.079-0.423,0.241-0.589c0.162-0.167,0.363-0.25,0.605-0.25s0.446,0.081,0.61,0.246
		C44.857,10.212,44.939,10.411,44.939,10.644 M44.718,21.649h-1.299v-8.103h1.299V21.649z M52.125,21.278
		c-0.628,0.38-1.369,0.569-2.224,0.569c-0.739,0-1.403-0.171-1.99-0.511c-0.59-0.34-1.047-0.821-1.373-1.444
		c-0.328-0.622-0.49-1.32-0.49-2.096c0-1.34,0.383-2.416,1.15-3.229c0.769-0.812,1.79-1.219,3.066-1.219
		c0.707,0,1.332,0.138,1.876,0.413v1.329c-0.606-0.422-1.25-0.633-1.931-0.633c-0.839,0-1.521,0.3-2.046,0.898
		s-0.788,1.373-0.788,2.322c0,0.945,0.25,1.691,0.749,2.241c0.498,0.547,1.167,0.822,2.006,0.822c0.706,0,1.372-0.232,1.994-0.697
		V21.278L52.125,21.278z M60.097,17.924h-5.72c0.021,0.913,0.263,1.609,0.724,2.093c0.462,0.482,1.101,0.724,1.919,0.724
		c0.918,0,1.754-0.296,2.508-0.886v1.21c-0.706,0.524-1.645,0.783-2.816,0.783c-1.157,0-2.057-0.374-2.708-1.12
		c-0.648-0.745-0.972-1.778-0.972-3.098c0-0.802,0.162-1.534,0.486-2.195c0.324-0.662,0.772-1.175,1.341-1.54
		c0.571-0.363,1.203-0.547,1.899-0.547c1.05,0,1.868,0.342,2.457,1.026c0.589,0.682,0.882,1.638,0.882,2.869V17.924L60.097,17.924z
		 M58.769,16.822c-0.012-0.748-0.192-1.33-0.542-1.745c-0.352-0.414-0.846-0.621-1.484-0.621c-0.601,0-1.116,0.216-1.542,0.648
		c-0.43,0.432-0.695,1.005-0.807,1.717H58.769L58.769,16.822z M69.971,18.438c0,1.023-0.365,1.847-1.099,2.472
		c-0.733,0.627-1.697,0.938-2.889,0.938c-1.081,0-1.941-0.205-2.58-0.616v-1.394c0.766,0.601,1.642,0.902,2.627,0.902
		c0.798,0,1.432-0.197,1.902-0.591c0.474-0.392,0.71-0.924,0.71-1.595c0-1.48-1.057-2.223-3.166-2.223h-0.941v-1.1h0.895
		c1.867,0,2.802-0.697,2.802-2.09c0-1.287-0.713-1.93-2.138-1.93c-0.802,0-1.553,0.269-2.255,0.807v-1.258
		c0.722-0.433,1.583-0.648,2.58-0.648c0.938,0,1.696,0.249,2.275,0.748c0.577,0.499,0.866,1.152,0.866,1.958
		c0,1.493-0.755,2.453-2.264,2.882v0.03c0.801,0.09,1.449,0.379,1.939,0.871C69.727,17.093,69.971,17.703,69.971,18.438
		 M78.51,18.05c0,0.719-0.154,1.369-0.463,1.954c-0.308,0.586-0.733,1.04-1.278,1.361c-0.544,0.323-1.152,0.482-1.828,0.482
		c-1.134,0-2.024-0.455-2.67-1.369c-0.647-0.911-0.97-2.188-0.97-3.822c0-1.297,0.191-2.443,0.574-3.437
		c0.383-0.995,0.924-1.76,1.625-2.298c0.702-0.54,1.512-0.808,2.43-0.808c0.781,0,1.409,0.108,1.885,0.325v1.227
		c-0.586-0.302-1.205-0.451-1.853-0.451c-1.003,0-1.805,0.45-2.409,1.349c-0.605,0.9-0.907,2.099-0.907,3.597h0.032
		c0.521-1.071,1.385-1.607,2.587-1.607c0.98,0,1.768,0.321,2.359,0.961C78.215,16.154,78.51,17,78.51,18.05 M77.181,18.216
		c0-0.791-0.194-1.417-0.581-1.876c-0.389-0.458-0.931-0.688-1.627-0.688c-0.633,0-1.165,0.222-1.599,0.668
		c-0.434,0.445-0.648,0.986-0.648,1.619c0,0.796,0.215,1.463,0.646,1.997c0.429,0.536,0.971,0.804,1.626,0.804
		c0.648,0,1.176-0.233,1.579-0.701C76.979,19.573,77.181,18.964,77.181,18.216 M86.147,18.185c0,1.103-0.365,1.987-1.096,2.659
		c-0.73,0.669-1.705,1.003-2.925,1.003c-1.056,0-1.839-0.156-2.349-0.474v-1.378c0.769,0.498,1.558,0.746,2.364,0.746
		c0.803,0,1.448-0.226,1.939-0.674s0.736-1.05,0.736-1.804c0-0.74-0.248-1.318-0.745-1.737c-0.495-0.42-1.215-0.628-2.159-0.628
		c-0.755,0-1.396,0.031-1.924,0.093l0.387-5.689h5.249v1.171h-4.124l-0.23,3.332l1.046-0.041c1.183,0,2.115,0.3,2.801,0.896
		C85.804,16.255,86.147,17.098,86.147,18.185 M15.913,23.852h-0.001V8.125L10.277,6.5L0.147,10.303l-0.025,0.005L0.123,21.68
		l3.458-1.354v-9.251l6.696-1.602l-0.001,13.602L0.129,21.68l10.146,3.746v0.004l5.636-1.56v-0.019H15.913z"/>
</g>
</svg>
