<?xml version="1.0" encoding="utf-8"?>
<svg width="40" height="560" viewBox="0 0 40 560" xmlns="http://www.w3.org/2000/svg">
  <svg version="1" viewBox="0 0 40 40" enable-background="new 0 0 40 40" width="40" height="40" id="ic_calendar" y="0">
    <path fill="#cacaca" d="M7.447 14.25v17.298c0 1.158.776 2.096 1.732 2.096h21.549c.956 0 1.731-.938 1.731-2.096v-17.298h-25.012zm6.109 17.663h-4.57v-4.569h4.569v4.569zm0-5.725h-4.57v-4.569h4.569v4.569zm0-5.687h-4.57v-4.569h4.569v4.569zm5.724 11.412h-4.57v-4.569h4.57v4.569zm0-5.725h-4.57v-4.569h4.57v4.569zm0-5.687h-4.57v-4.569h4.57v4.569zm5.725 11.412h-4.571v-4.569h4.571v4.569zm0-5.725h-4.571v-4.569h4.571v4.569zm0-5.687h-4.571v-4.569h4.571v4.569zm5.724 11.412h-4.569v-4.569h4.569v4.569zm0-5.725h-4.569v-4.569h4.569v4.569zm0-5.687h-4.569v-4.569h4.569v4.569zm1.73-10.171c0-1.157-.774-2.096-1.73-2.096h-4.258v-2.669c0-.596-.397-1.08-.89-1.08-.491 0-.889.484-.889 1.08v2.669h-9.67v-2.669c0-.596-.398-1.08-.889-1.08-.492 0-.89.484-.89 1.08v2.669h-4.063c-.957 0-1.732.939-1.732 2.096v3.053h25.012v-3.053zm-18.325 1.851c-.904 0-1.636-.732-1.636-1.636 0-.574.297-1.077.746-1.368v.772c0 .595.397 1.079.89 1.079.491 0 .889-.484.889-1.079v-.772c.449.292.746.796.746 1.368 0 .903-.733 1.636-1.635 1.636zm11.448 0c-.904 0-1.637-.732-1.637-1.636 0-.574.299-1.077.748-1.368v.772c0 .595.396 1.079.889 1.079.491 0 .89-.484.89-1.079v-.772c.448.292.746.796.746 1.368-.001.903-.735 1.636-1.636 1.636z"/>
  </svg>
  <svg version="1" viewBox="0 0 40 40" enable-background="new 0 0 40 40" width="40" height="40" id="ic_calendar_active" y="40">
    <path fill="#7e7e7e" d="M7.447 14.25v17.298c0 1.158.776 2.096 1.732 2.096h21.549c.956 0 1.731-.938 1.731-2.096v-17.298h-25.012zm6.109 17.663h-4.57v-4.569h4.569v4.569zm0-5.725h-4.57v-4.569h4.569v4.569zm0-5.687h-4.57v-4.569h4.569v4.569zm5.724 11.412h-4.57v-4.569h4.57v4.569zm0-5.725h-4.57v-4.569h4.57v4.569zm0-5.687h-4.57v-4.569h4.57v4.569zm5.725 11.412h-4.571v-4.569h4.571v4.569zm0-5.725h-4.571v-4.569h4.571v4.569zm0-5.687h-4.571v-4.569h4.571v4.569zm5.724 11.412h-4.569v-4.569h4.569v4.569zm0-5.725h-4.569v-4.569h4.569v4.569zm0-5.687h-4.569v-4.569h4.569v4.569zm1.73-10.171c0-1.157-.774-2.096-1.73-2.096h-4.258v-2.669c0-.596-.397-1.08-.89-1.08-.491 0-.889.484-.889 1.08v2.669h-9.67v-2.669c0-.596-.398-1.08-.889-1.08-.492 0-.89.484-.89 1.08v2.669h-4.063c-.957 0-1.732.939-1.732 2.096v3.053h25.012v-3.053zm-18.325 1.851c-.904 0-1.636-.732-1.636-1.636 0-.574.297-1.077.746-1.368v.772c0 .595.397 1.079.89 1.079.491 0 .889-.484.889-1.079v-.772c.449.292.746.796.746 1.368 0 .903-.733 1.636-1.635 1.636zm11.448 0c-.904 0-1.637-.732-1.637-1.636 0-.574.299-1.077.748-1.368v.772c0 .595.396 1.079.889 1.079.491 0 .89-.484.89-1.079v-.772c.448.292.746.796.746 1.368-.001.903-.735 1.636-1.636 1.636z"/>
  </svg>
  <svg version="1" viewBox="0 0 39.995 39.995" enable-background="new 0 0 39.995 39.995" width="39.995" height="39.995" id="ic_committees_active_c" y="80">
    <path fill="#7e7e7e" d="M18.158 12.278c0-1.203.976-2.18 2.179-2.18s2.18.977 2.18 2.18c0 .704-.336 1.329-.854 1.727-.188.145-.401.261-.633.337-.218.073-.45.115-.693.115s-.476-.042-.694-.115c-.23-.077-.442-.192-.632-.337-.518-.397-.853-1.023-.853-1.727zm7.008 8.4v-4.003c0-.534-.31-.992-.755-1.217-.186-.094-.393-.152-.614-.152h-1.819l-.003.003h-3.277l-.002-.003h-1.817c-.222 0-.429.058-.616.152-.445.225-.754.683-.754 1.217v4.003c1.573-.212 3.19-.321 4.829-.321s3.254.11 4.828.321zm4.969-4.99c.188.145.401.261.631.337.219.074.451.116.695.116.241 0 .475-.041.692-.115.232-.077.443-.193.633-.338.518-.398.854-1.022.854-1.727 0-1.204-.976-2.179-2.179-2.179-1.204 0-2.18.975-2.18 2.179 0 .704.335 1.328.854 1.727zm5.032 2.67c0-.535-.237-.992-.578-1.217-.144-.095-.303-.152-.474-.152h-1.395l-.001.002h-2.518l-.003-.002h-1.395c-.17 0-.329.057-.472.152-.343.225-.58.683-.58 1.217v2.774c2.663.57 5.166 1.449 7.415 2.609v-5.383h.001zm-27.279-2.67c.188.145.401.261.63.337.218.074.452.116.695.116.242 0 .475-.041.693-.115.23-.077.443-.193.633-.338.517-.398.854-1.022.854-1.727 0-1.204-.977-2.179-2.18-2.179-1.204 0-2.179.975-2.179 2.179.001.704.336 1.328.854 1.727zm5.033 2.67c0-.535-.238-.992-.579-1.217-.142-.095-.302-.152-.472-.152h-1.395l-.002.002h-2.517l-.003-.002h-1.395c-.171 0-.33.057-.473.152-.342.225-.58.683-.58 1.217v5.382c2.25-1.159 4.752-2.038 7.415-2.608l.001-2.774zm22.11 6.636c-2.15-1.155-4.608-2.063-7.279-2.659-.843-.188-1.705-.344-2.586-.467-1.559-.219-3.174-.334-4.83-.334-1.655 0-3.27.115-4.829.334-.881.123-1.745.279-2.586.467-2.67.596-5.128 1.504-7.277 2.659-1.566.844-2.97 1.815-4.17 2.896h37.726c-1.201-1.08-2.604-2.052-4.169-2.896z"/>
  </svg>
  <svg version="1" viewBox="0 0 39.995 39.995" enable-background="new 0 0 39.995 39.995" width="39.995" height="39.995" id="ic_committees_c" y="120">
    <path fill="#cacaca" d="M18.158 12.278c0-1.203.976-2.18 2.179-2.18s2.18.977 2.18 2.18c0 .704-.336 1.329-.854 1.727-.188.145-.401.261-.633.337-.218.073-.45.115-.693.115s-.476-.042-.694-.115c-.23-.077-.442-.192-.632-.337-.518-.397-.853-1.023-.853-1.727zm7.008 8.4v-4.003c0-.534-.31-.992-.755-1.217-.186-.094-.393-.152-.614-.152h-1.819l-.003.003h-3.277l-.002-.003h-1.817c-.222 0-.429.058-.616.152-.445.225-.754.683-.754 1.217v4.003c1.573-.212 3.19-.321 4.829-.321s3.254.11 4.828.321zm4.969-4.99c.188.145.401.261.631.337.219.074.451.116.695.116.241 0 .475-.041.692-.115.232-.077.443-.193.633-.338.518-.398.854-1.022.854-1.727 0-1.204-.976-2.179-2.179-2.179-1.204 0-2.18.975-2.18 2.179 0 .704.335 1.328.854 1.727zm5.032 2.67c0-.535-.237-.992-.578-1.217-.144-.095-.303-.152-.474-.152h-1.395l-.001.002h-2.518l-.003-.002h-1.395c-.17 0-.329.057-.472.152-.343.225-.58.683-.58 1.217v2.774c2.663.57 5.166 1.449 7.415 2.609v-5.383h.001zm-27.279-2.67c.188.145.401.261.63.337.218.074.452.116.695.116.242 0 .475-.041.693-.115.23-.077.443-.193.633-.338.517-.398.854-1.022.854-1.727 0-1.204-.977-2.179-2.18-2.179-1.204 0-2.179.975-2.179 2.179.001.704.336 1.328.854 1.727zm5.033 2.67c0-.535-.238-.992-.579-1.217-.142-.095-.302-.152-.472-.152h-1.395l-.002.002h-2.517l-.003-.002h-1.395c-.171 0-.33.057-.473.152-.342.225-.58.683-.58 1.217v5.382c2.25-1.159 4.752-2.038 7.415-2.608l.001-2.774zm22.11 6.636c-2.15-1.155-4.608-2.063-7.279-2.659-.843-.188-1.705-.344-2.586-.467-1.559-.219-3.174-.334-4.83-.334-1.655 0-3.27.115-4.829.334-.881.123-1.745.279-2.586.467-2.67.596-5.128 1.504-7.277 2.659-1.566.844-2.97 1.815-4.17 2.896h37.726c-1.201-1.08-2.604-2.052-4.169-2.896z"/>
  </svg>
  <svg version="1" viewBox="0 0 40 40" enable-background="new 0 0 40 40" width="40" height="40" id="ic_dashboard" y="160">
    <path fill="#cacaca" d="M19.953 5.812c-7.859 0-14.252 6.394-14.252 14.252 0 7.859 6.394 14.252 14.252 14.252 7.859 0 14.253-6.394 14.253-14.252s-6.393-14.252-14.253-14.252zm0 25.848c-6.394 0-11.595-5.201-11.595-11.595 0-6.394 5.202-11.595 11.595-11.595s11.596 5.202 11.596 11.595c0 6.393-5.202 11.595-11.596 11.595zm6.48-14.085l-5.627.695c-.302-.222-.67-.358-1.074-.358-1.004 0-1.817.813-1.817 1.817s.813 1.817 1.817 1.817c.731 0 1.358-.435 1.646-1.059l5.193-2.432c.795-.371.733-.588-.138-.48zm2.972 1.989c-.008-.163.009-.367-.021-.603l-.1-.813c-.07-.298-.137-.632-.232-.99l-.185-.549-.1-.29-.13-.289c-.324-.797-.843-1.637-1.542-2.439-.697-.803-1.596-1.563-2.681-2.142-1.079-.582-2.341-.986-3.692-1.098-1.322-.114-2.751.037-4.082.521-1.334.476-2.583 1.257-3.61 2.27-1.012 1.027-1.793 2.275-2.269 3.61-.056.167-.129.33-.171.501l-.129.512c-.099.335-.13.694-.185 1.041l-.037.261-.012.251-.021.499-.009.263.015.255.029.505c.111 1.343.516 2.605 1.098 3.686.579 1.085 1.339 1.982 2.142 2.681.803.698 1.643 1.216 2.439 1.541l.289.13.29.1.548.185c.358.097.692.163.99.233l.814.1c.236.029.438.014.601.021l.5.008-.499-.044c-.162-.02-.366-.018-.597-.064l-.794-.146c-.291-.086-.615-.169-.96-.281l-.527-.21-.277-.111-.275-.143c-.757-.356-1.54-.903-2.288-1.6-.195-.183-.385-.381-.57-.589l.569-.834-.804.549c-.429-.521-.826-1.102-1.153-1.752-.524-1.04-.866-2.241-.955-3.503l-.02-.477-.011-.239.003-.049 1.793-.201-1.77-.218.016-.263.016-.25.039-.236c.057-.315.086-.633.187-.95l.125-.478.163-.467c.369-1.018.938-1.974 1.649-2.813l.721.492-.503-.736.269-.301c.954-.948 2.115-1.684 3.359-2.135.896-.324 1.823-.504 2.749-.548l.239 1.789.239-1.792c.203.001.406-.003.608.011 1.252.089 2.454.43 3.494.954 1.042.524 1.926 1.215 2.627 1.958l.027.031-.525.77.749-.512c.573.659 1.036 1.338 1.349 1.999l.142.275.112.277.209.527c.113.345.196.669.282.96l.146.795c.048.231.046.434.065.595l.044.499-.009-.5z"/>
  </svg>
  <svg version="1" viewBox="0 0 40 40" enable-background="new 0 0 40 40" width="40" height="40" id="ic_dashboard_active" y="200">
    <path fill="#7e7e7e" d="M19.953 5.812c-7.859 0-14.252 6.394-14.252 14.252 0 7.859 6.394 14.252 14.252 14.252 7.859 0 14.253-6.394 14.253-14.252s-6.393-14.252-14.253-14.252zm0 25.848c-6.394 0-11.595-5.201-11.595-11.595 0-6.394 5.202-11.595 11.595-11.595s11.596 5.202 11.596 11.595c0 6.393-5.202 11.595-11.596 11.595zm6.48-14.085l-5.627.695c-.302-.222-.67-.358-1.074-.358-1.004 0-1.817.813-1.817 1.817s.813 1.817 1.817 1.817c.731 0 1.358-.435 1.646-1.059l5.193-2.432c.795-.371.733-.588-.138-.48zm2.972 1.989c-.008-.163.009-.367-.021-.603l-.1-.813c-.07-.298-.137-.632-.232-.99l-.185-.549-.1-.29-.13-.289c-.324-.797-.843-1.637-1.542-2.439-.697-.803-1.596-1.563-2.681-2.142-1.079-.582-2.341-.986-3.692-1.098-1.322-.114-2.751.037-4.082.521-1.334.476-2.583 1.257-3.61 2.27-1.012 1.027-1.793 2.275-2.269 3.61-.056.167-.129.33-.171.501l-.129.512c-.099.335-.13.694-.185 1.041l-.037.261-.012.251-.021.499-.009.263.015.255.029.505c.111 1.343.516 2.605 1.098 3.686.579 1.085 1.339 1.982 2.142 2.681.803.698 1.643 1.216 2.439 1.541l.289.13.29.1.548.185c.358.097.692.163.99.233l.814.1c.236.029.438.014.601.021l.5.008-.499-.044c-.162-.02-.366-.018-.597-.064l-.794-.146c-.291-.086-.615-.169-.96-.281l-.527-.21-.277-.111-.275-.143c-.757-.356-1.54-.903-2.288-1.6-.195-.183-.385-.381-.57-.589l.569-.834-.804.549c-.429-.521-.826-1.102-1.153-1.752-.524-1.04-.866-2.241-.955-3.503l-.02-.477-.011-.239.003-.049 1.793-.201-1.77-.218.016-.263.016-.25.039-.236c.057-.315.086-.633.187-.95l.125-.478.163-.467c.369-1.018.938-1.974 1.649-2.813l.721.492-.503-.736.269-.301c.954-.948 2.115-1.684 3.359-2.135.896-.324 1.823-.504 2.749-.548l.239 1.789.239-1.792c.203.001.406-.003.608.011 1.252.089 2.454.43 3.494.954 1.042.524 1.926 1.215 2.627 1.958l.027.031-.525.77.749-.512c.573.659 1.036 1.338 1.349 1.999l.142.275.112.277.209.527c.113.345.196.669.282.96l.146.795c.048.231.046.434.065.595l.044.499-.009-.5z"/>
  </svg>
  <svg version="1" viewBox="0 0 40 40" enable-background="new 0 0 40 40" width="40" height="40" id="ic_governance" y="240">
    <path fill="#cacaca" d="M7.433 9.226l.003.001-.001-.001h-.002zm2.937-.042l.006.001-.006-.001zm-.713.222h-.003.003zm.723-.22l.004-.001-.008.001h.004zm.01-.003h-.001l-.005.001.006-.001zm.098-.272h-.001l-.001.05.002-.05zm-.857.493l.007.001-.004-.001h-.003zm-2.185-.175zm2.204.179l.003-.001-.015-.001.012.002zm-2.207-.179h.002l-.01-.001.008.001zm-.119-.318l.005.067-.003-.067h-.002zm.483.093h-.003l.021.002-.004-.001-.014-.001zm5.876 16.99h4.699v-.806h-4.699v.806zm-5.189-16.875l-.008.002.025-.002-.003-.001-.014.001zm11.738 19.963h7.879v-9.085h-7.879v9.085zm-6.549-8.28h4.699v-.805h-4.699v.805zm0 7.654h4.699v-.806h-4.699v.806zm0 2.55h4.699v-.806h-4.699v.806zm0-7.564h4.699v-.805h-4.699v.805zm-4.821-13.951l-.025-.005.022.006.003-.001zm-.724-.064l-.025.003.006.001.019-.004zm-2.033-1.32c-.112.237 0 .333.249.215.249-.119.4.003.336.271-.065.267.057.354.27.193l.076-.048.012-.005.056-.021.021-.003.039-.003.025.004.026.007.026.016.016.013.025.029.008.014.02.046.002.009.012.066.003.068v-.001.002c-.006.156.036.24.105.247l.013.002c.047-.002.105-.037.169-.11.066-.075.131-.111.189-.114l.004-.001h.005l.009.002.006.001h-.001c.079.007.142.082.163.222.034.251.175.272.308.046.058-.097.124-.146.188-.153l-.004.001.013-.003.01-.002h.003l.003.001c.075.004.146.068.191.194.089.247.237.237.33-.021.092-.259.286-.279.429-.043.06.098.121.148.173.156l.022.002c.063-.006.112-.076.131-.214.036-.265.214-.321.396-.126.073.078.137.114.188.118l.018-.001c.065-.008.104-.081.094-.22l.001-.052h.002c.003-.079.025-.137.061-.172l.002-.002.034-.021.027-.008.017-.003c.056-.005.123.018.197.074.096.07.17.087.217.061.054-.029.071-.114.037-.25-.056-.222.045-.338.229-.289l.083.031.084.033.014.003.053.009.022-.003.031-.004.007-.004c.069-.03.078-.129.007-.279-.118-.249.005-.399.271-.336.162.039.255.008.27-.067.01-.05-.013-.119-.078-.204-.101-.133-.104-.248-.028-.312.046-.038.12-.058.219-.055.135.005.218-.025.243-.077l.007-.035.001-.007c-.002-.047-.037-.104-.109-.168l-.098-.123c-.054-.119.021-.22.208-.248.102-.016.163-.048.188-.09.037-.062-.007-.142-.142-.223-.225-.134-.208-.315.038-.404.122-.043.18-.101.177-.159-.001-.061-.067-.122-.199-.168-.258-.093-.278-.286-.043-.429.147-.09.192-.181.14-.246-.031-.039-.096-.068-.195-.082-.232-.031-.305-.171-.188-.328l.062-.068.063-.066c.119-.147.056-.25-.165-.236-.22.013-.311-.103-.23-.267l.004-.006.042-.068.01-.015.035-.056c.081-.157-.011-.237-.233-.181-.253.064-.369-.077-.257-.314.112-.236 0-.333-.249-.215-.249.119-.4-.003-.336-.271.064-.267-.058-.354-.271-.193l-.075.048-.012.005-.056.021-.022.003-.039.003-.025-.004-.026-.008-.027-.015-.015-.013-.025-.029-.007-.013-.02-.046-.002-.009-.012-.066-.003-.068c.01-.268-.118-.33-.286-.14-.167.191-.335.142-.372-.11-.039-.255-.179-.276-.312-.05-.134.225-.316.208-.405-.038-.088-.247-.236-.237-.329.022-.092.259-.286.279-.428.044-.144-.235-.291-.21-.327.054-.036.265-.214.322-.397.126-.182-.196-.317-.149-.3.104l-.001.052h-.002c-.003.079-.025.137-.06.172l-.003.002-.033.021-.027.008-.017.004c-.056.005-.123-.019-.198-.074-.095-.07-.171-.087-.217-.062-.054.03-.072.115-.038.25.057.222-.045.337-.229.289l-.082-.031-.084-.033-.015-.002-.052-.009-.022.003-.032.004-.007.003c-.069.031-.079.129-.007.279.118.249-.005.4-.271.336-.162-.038-.256-.008-.27.068-.011.05.013.119.077.204.101.133.104.248.028.313-.046.038-.12.058-.219.055-.134-.006-.217.023-.242.076l-.007.035-.001.008c.002.046.038.104.11.167l.098.123c.052.119-.023.22-.21.248-.102.016-.163.049-.188.09-.037.061.008.143.142.223.226.133.209.315-.038.404-.121.042-.18.101-.177.159.001.061.067.122.198.168.259.093.279.286.044.43-.146.09-.192.181-.14.246.03.039.096.068.195.082.232.03.305.17.189.327l-.062.067-.062.067c-.12.147-.057.25.164.236.22-.013.312.103.231.268l-.004.006-.042.068-.01.017-.035.054c-.08.157.012.237.234.181.254-.064.369.077.257.314zm3.129.976l.007-.001.025.005-.032-.004zm.727-.132l.015-.004.007.001-.022.003zm-1.713-4.021l.614-1.245.614 1.245 1.374.2-.994.968.235 1.368-1.229-.645-1.229.645.235-1.368-.994-.968 1.374-.2zm5.153 1.841l-.085.123c.021.193-.024.349-.051.418-.03.08-.115.261-.306.405-.01.156-.057.278-.092.348-.058.116-.139.213-.236.292v.831h18.331v23.296c0 .627-.444 1.566-1.109 1.566h-19.35v-16.348l-1.715-1.056-.283.185v19.635h21.348c1.591 0 3.107-1.88 3.107-3.983v-25.712h-19.559zm.985 10.631h12.321v-1.567h-12.321v1.567zm-2.562.165v-8.425l-.015.005-.104.167c-.153.196-.378.318-.625.34l-.049.057c-.171.182-.402.282-.652.282l-.129-.009c-.175.157-.394.231-.6.231-.081 0-.191-.011-.312-.055-.2.123-.395.139-.479.139-.079 0-.253-.013-.436-.113-.118.042-.225.053-.305.053-.195 0-.402-.066-.572-.208l-.104.006c-.245 0-.474-.098-.645-.275l-.075-.088c-.257-.016-.493-.138-.653-.341l-.11-.177-.058-.019v8.43l2.872-1.876 3.051 1.876z"/>
  </svg>
  <svg version="1" viewBox="0 0 40 40" enable-background="new 0 0 40 40" width="40" height="40" id="ic_governance_active" y="280">
    <path fill="#7e7e7e" d="M7.433 9.226l.003.001-.001-.001h-.002zm2.937-.042l.006.001-.006-.001zm-.713.222h-.003.003zm.723-.22l.004-.001-.008.001h.004zm.01-.003h-.001l-.005.001.006-.001zm.098-.272h-.001l-.001.05.002-.05zm-.857.493l.007.001-.004-.001h-.003zm-2.185-.175zm2.204.179l.003-.001-.015-.001.012.002zm-2.207-.179h.002l-.01-.001.008.001zm-.119-.318l.005.067-.003-.067h-.002zm.483.093h-.003l.021.002-.004-.001-.014-.001zm5.876 16.99h4.699v-.806h-4.699v.806zm-5.189-16.875l-.008.002.025-.002-.003-.001-.014.001zm11.738 19.963h7.879v-9.085h-7.879v9.085zm-6.549-8.28h4.699v-.805h-4.699v.805zm0 7.654h4.699v-.806h-4.699v.806zm0 2.55h4.699v-.806h-4.699v.806zm0-7.564h4.699v-.805h-4.699v.805zm-4.821-13.951l-.025-.005.022.006.003-.001zm-.724-.064l-.025.003.006.001.019-.004zm-2.033-1.32c-.112.237 0 .333.249.215.249-.119.4.003.336.271-.065.267.057.354.27.193l.076-.048.012-.005.056-.021.021-.003.039-.003.025.004.026.007.026.016.016.013.025.029.008.014.02.046.002.009.012.066.003.068v-.001.002c-.006.156.036.24.105.247l.013.002c.047-.002.105-.037.169-.11.066-.075.131-.111.189-.114l.004-.001h.005l.009.002.006.001h-.001c.079.007.142.082.163.222.034.251.175.272.308.046.058-.097.124-.146.188-.153l-.004.001.013-.003.01-.002h.003l.003.001c.075.004.146.068.191.194.089.247.237.237.33-.021.092-.259.286-.279.429-.043.06.098.121.148.173.156l.022.002c.063-.006.112-.076.131-.214.036-.265.214-.321.396-.126.073.078.137.114.188.118l.018-.001c.065-.008.104-.081.094-.22l.001-.052h.002c.003-.079.025-.137.061-.172l.002-.002.034-.021.027-.008.017-.003c.056-.005.123.018.197.074.096.07.17.087.217.061.054-.029.071-.114.037-.25-.056-.222.045-.338.229-.289l.083.031.084.033.014.003.053.009.022-.003.031-.004.007-.004c.069-.03.078-.129.007-.279-.118-.249.005-.399.271-.336.162.039.255.008.27-.067.01-.05-.013-.119-.078-.204-.101-.133-.104-.248-.028-.312.046-.038.12-.058.219-.055.135.005.218-.025.243-.077l.007-.035.001-.007c-.002-.047-.037-.104-.109-.168l-.098-.123c-.054-.119.021-.22.208-.248.102-.016.163-.048.188-.09.037-.062-.007-.142-.142-.223-.225-.134-.208-.315.038-.404.122-.043.18-.101.177-.159-.001-.061-.067-.122-.199-.168-.258-.093-.278-.286-.043-.429.147-.09.192-.181.14-.246-.031-.039-.096-.068-.195-.082-.232-.031-.305-.171-.188-.328l.062-.068.063-.066c.119-.147.056-.25-.165-.236-.22.013-.311-.103-.23-.267l.004-.006.042-.068.01-.015.035-.056c.081-.157-.011-.237-.233-.181-.253.064-.369-.077-.257-.314.112-.236 0-.333-.249-.215-.249.119-.4-.003-.336-.271.064-.267-.058-.354-.271-.193l-.075.048-.012.005-.056.021-.022.003-.039.003-.025-.004-.026-.008-.027-.015-.015-.013-.025-.029-.007-.013-.02-.046-.002-.009-.012-.066-.003-.068c.01-.268-.118-.33-.286-.14-.167.191-.335.142-.372-.11-.039-.255-.179-.276-.312-.05-.134.225-.316.208-.405-.038-.088-.247-.236-.237-.329.022-.092.259-.286.279-.428.044-.144-.235-.291-.21-.327.054-.036.265-.214.322-.397.126-.182-.196-.317-.149-.3.104l-.001.052h-.002c-.003.079-.025.137-.06.172l-.003.002-.033.021-.027.008-.017.004c-.056.005-.123-.019-.198-.074-.095-.07-.171-.087-.217-.062-.054.03-.072.115-.038.25.057.222-.045.337-.229.289l-.082-.031-.084-.033-.015-.002-.052-.009-.022.003-.032.004-.007.003c-.069.031-.079.129-.007.279.118.249-.005.4-.271.336-.162-.038-.256-.008-.27.068-.011.05.013.119.077.204.101.133.104.248.028.313-.046.038-.12.058-.219.055-.134-.006-.217.023-.242.076l-.007.035-.001.008c.002.046.038.104.11.167l.098.123c.052.119-.023.22-.21.248-.102.016-.163.049-.188.09-.037.061.008.143.142.223.226.133.209.315-.038.404-.121.042-.18.101-.177.159.001.061.067.122.198.168.259.093.279.286.044.43-.146.09-.192.181-.14.246.03.039.096.068.195.082.232.03.305.17.189.327l-.062.067-.062.067c-.12.147-.057.25.164.236.22-.013.312.103.231.268l-.004.006-.042.068-.01.017-.035.054c-.08.157.012.237.234.181.254-.064.369.077.257.314zm3.129.976l.007-.001.025.005-.032-.004zm.727-.132l.015-.004.007.001-.022.003zm-1.713-4.021l.614-1.245.614 1.245 1.374.2-.994.968.235 1.368-1.229-.645-1.229.645.235-1.368-.994-.968 1.374-.2zm5.153 1.841l-.085.123c.021.193-.024.349-.051.418-.03.08-.115.261-.306.405-.01.156-.057.278-.092.348-.058.116-.139.213-.236.292v.831h18.331v23.296c0 .627-.444 1.566-1.109 1.566h-19.35v-16.348l-1.715-1.056-.283.185v19.635h21.348c1.591 0 3.107-1.88 3.107-3.983v-25.712h-19.559zm.985 10.631h12.321v-1.567h-12.321v1.567zm-2.562.165v-8.425l-.015.005-.104.167c-.153.196-.378.318-.625.34l-.049.057c-.171.182-.402.282-.652.282l-.129-.009c-.175.157-.394.231-.6.231-.081 0-.191-.011-.312-.055-.2.123-.395.139-.479.139-.079 0-.253-.013-.436-.113-.118.042-.225.053-.305.053-.195 0-.402-.066-.572-.208l-.104.006c-.245 0-.474-.098-.645-.275l-.075-.088c-.257-.016-.493-.138-.653-.341l-.11-.177-.058-.019v8.43l2.872-1.876 3.051 1.876z"/>
  </svg>
  <svg version="1" viewBox="0 0 40 40" enable-background="new 0 0 40 40" width="40" height="40" id="ic_meetings" y="320">
    <path fill="#cacaca" d="M33.195 5.01h-26.483c-.696 0-1.261.564-1.261 1.261 0 .696.565 1.261 1.261 1.261h1.064v14.881c0 .435.313.781.721.867.146.082.306.142.485.142h9.962v3.87l-5.82 5.821c-.394.394-.394 1.032 0 1.426.197.197.455.296.713.296.258 0 .516-.099.714-.296l4.394-4.394v3.964c0 .558.452 1.009 1.009 1.009.558 0 1.009-.451 1.008-1.009v-4.107l4.679 4.678c.196.197.455.296.713.296.259 0 .517-.099.714-.296.394-.394.394-1.032 0-1.427l-6.105-6.104v-3.728h9.964c.139 0 .271-.028.393-.08.361-.153.615-.512.616-.929v-14.88h1.261c.696 0 1.261-.564 1.261-1.261-.002-.696-.566-1.261-1.263-1.261zm-3.279 16.394h-20.331v-13.872h20.331v13.872zm-17.2-2.903c.196 0 .392-.077.54-.227l1.948-1.985.991 1.616.04.039.135.159.074.041.075.041c.103.049.21.082.32.082.097 0 .193-.026.287-.064l.059-.026.049-.021.132-.123.067-.053 3.951-5 1.189 1.779.039.035.036.059.141.099.089.063c.103.049.213.08.325.08l.245-.045.078-.037.097-.046.038-.039.057-.035 3.045-2.825c.307-.284.324-.763.04-1.069-.285-.306-.763-.324-1.069-.04l-2.394 2.221-1.216-1.818c-.232-.348-.703-.44-1.05-.209l-.105.106c-.125.047-.244.115-.333.228l-3.718 4.703-.93-1.517-.066-.071-.049-.073-.047-.031-.133-.086-.124-.057-.146-.027-.138-.006-.145.03-.136.05-.058.021-.07.065-.074.05-2.627 2.675c-.293.298-.288.777.01 1.07.148.146.339.218.531.218z"/>
  </svg>
  <svg version="1" viewBox="0 0 40 40" enable-background="new 0 0 40 40" width="40" height="40" id="ic_meetings_active" y="360">
    <path fill="#7e7e7e" d="M33.195 5.01h-26.483c-.696 0-1.261.564-1.261 1.261 0 .696.565 1.261 1.261 1.261h1.064v14.881c0 .435.313.781.721.867.146.082.306.142.485.142h9.962v3.87l-5.82 5.821c-.394.394-.394 1.032 0 1.426.197.197.455.296.713.296.258 0 .516-.099.714-.296l4.394-4.394v3.964c0 .558.452 1.009 1.009 1.009.558 0 1.009-.451 1.008-1.009v-4.107l4.679 4.678c.196.197.455.296.713.296.259 0 .517-.099.714-.296.394-.394.394-1.032 0-1.427l-6.105-6.104v-3.728h9.964c.139 0 .271-.028.393-.08.361-.153.615-.512.616-.929v-14.88h1.261c.696 0 1.261-.564 1.261-1.261-.002-.696-.566-1.261-1.263-1.261zm-3.279 16.394h-20.331v-13.872h20.331v13.872zm-17.2-2.903c.196 0 .392-.077.54-.227l1.948-1.985.991 1.616.04.039.135.159.074.041.075.041c.103.049.21.082.32.082.097 0 .193-.026.287-.064l.059-.026.049-.021.132-.123.067-.053 3.951-5 1.189 1.779.039.035.036.059.141.099.089.063c.103.049.213.08.325.08l.245-.045.078-.037.097-.046.038-.039.057-.035 3.045-2.825c.307-.284.324-.763.04-1.069-.285-.306-.763-.324-1.069-.04l-2.394 2.221-1.216-1.818c-.232-.348-.703-.44-1.05-.209l-.105.106c-.125.047-.244.115-.333.228l-3.718 4.703-.93-1.517-.066-.071-.049-.073-.047-.031-.133-.086-.124-.057-.146-.027-.138-.006-.145.03-.136.05-.058.021-.07.065-.074.05-2.627 2.675c-.293.298-.288.777.01 1.07.148.146.339.218.531.218z"/>
  </svg>
  <svg version="1" viewBox="0 0 40 40" enable-background="new 0 0 40 40" width="40" height="40" id="ic_members" y="400">
    <path fill="#cacaca" d="M25.562 14.403c1.308 0 2.367-1.06 2.367-2.367 0-1.308-1.06-2.367-2.367-2.367s-2.367 1.06-2.367 2.367c-.001 1.308 1.059 2.367 2.367 2.367zm3.951 8.01v-5.489c0-.84-.681-1.52-1.52-1.52h-3.576c.148.28.233.6.233.939v6.479h-.023c-.102.67-.535 1.232-1.127 1.515v3.811c0 .647.523 1.171 1.171 1.171h1.781c.647 0 1.172-.523 1.172-1.171v-4.132l-.004-.084h.373c.839 0 1.52-.68 1.52-1.519zm1.487-8.01c1.308 0 2.368-1.06 2.368-2.367 0-1.308-1.061-2.367-2.368-2.367s-2.366 1.06-2.366 2.367c0 1.308 1.059 2.367 2.366 2.367zm2.432 1.001h-3.576c.148.28.233.6.233.939v6.479h-.023c-.102.67-.535 1.232-1.127 1.515v3.811c0 .647.523 1.171 1.171 1.171h1.781c.648 0 1.172-.523 1.172-1.171v-4.132l-.004-.084h.373c.839 0 1.52-.68 1.52-1.52v-5.489c-.001-.839-.681-1.519-1.52-1.519zm-19.19-1.001c1.307 0 2.367-1.06 2.367-2.367 0-1.308-1.06-2.367-2.367-2.367-1.308 0-2.367 1.06-2.367 2.367 0 1.308 1.06 2.367 2.367 2.367zm.912 8.116v-6.176c0-.339.085-.659.234-.939h-3.576c-.84 0-1.52.68-1.52 1.52v5.489c0 .839.68 1.52 1.519 1.52h.373l-.004.084v4.132c0 .647.524 1.171 1.171 1.171h1.781c.648 0 1.172-.523 1.172-1.171v-3.813c-.679-.325-1.15-1.016-1.15-1.817zm-6.248-8.116c1.308 0 2.367-1.06 2.367-2.367 0-1.308-1.06-2.367-2.367-2.367s-2.367 1.06-2.367 2.367c0 1.308 1.06 2.367 2.367 2.367zm.912 8.116v-6.176c0-.339.085-.659.233-.939h-3.575c-.84 0-1.52.68-1.52 1.52v5.489c0 .839.68 1.52 1.519 1.52h.374l-.005.084v4.132c0 .647.525 1.171 1.172 1.171h1.781c.648 0 1.172-.523 1.172-1.171v-3.813c-.68-.325-1.151-1.016-1.151-1.817zm10.084-8.123c1.3 0 2.359-1.058 2.359-2.359s-1.059-2.359-2.359-2.359c-1.301 0-2.36 1.059-2.36 2.359s1.059 2.359 2.36 2.359zm4.14 8.123v-6.176c0-.361-.138-.69-.362-.939-.257-.286-.628-.467-1.042-.467h-5.47c-.414 0-.786.181-1.043.467-.225.249-.363.578-.363.939v6.176c0 .701.517 1.283 1.189 1.388l.216.019h.746l-.023.324-.004.072v5.123c0 .559.455 1.014 1.014 1.014h2.003c.559 0 1.015-.454 1.015-1.014v-5.123l-.004-.063-.023-.326.326-.008h.42l.216-.019c.672-.104 1.189-.686 1.189-1.387z"/>
  </svg>
  <svg version="1" viewBox="0 0 40 40" enable-background="new 0 0 40 40" width="40" height="40" id="ic_members_active" y="440">
    <path fill="#7e7e7e" d="M25.562 14.403c1.308 0 2.367-1.06 2.367-2.367 0-1.308-1.06-2.367-2.367-2.367s-2.367 1.06-2.367 2.367c-.001 1.308 1.059 2.367 2.367 2.367zm3.951 8.01v-5.489c0-.84-.681-1.52-1.52-1.52h-3.576c.148.28.233.6.233.939v6.479h-.023c-.102.67-.535 1.232-1.127 1.515v3.811c0 .647.523 1.171 1.171 1.171h1.781c.647 0 1.172-.523 1.172-1.171v-4.132l-.004-.084h.373c.839 0 1.52-.68 1.52-1.519zm1.487-8.01c1.308 0 2.368-1.06 2.368-2.367 0-1.308-1.061-2.367-2.368-2.367s-2.366 1.06-2.366 2.367c0 1.308 1.059 2.367 2.366 2.367zm2.432 1.001h-3.576c.148.28.233.6.233.939v6.479h-.023c-.102.67-.535 1.232-1.127 1.515v3.811c0 .647.523 1.171 1.171 1.171h1.781c.648 0 1.172-.523 1.172-1.171v-4.132l-.004-.084h.373c.839 0 1.52-.68 1.52-1.52v-5.489c-.001-.839-.681-1.519-1.52-1.519zm-19.19-1.001c1.307 0 2.367-1.06 2.367-2.367 0-1.308-1.06-2.367-2.367-2.367-1.308 0-2.367 1.06-2.367 2.367 0 1.308 1.06 2.367 2.367 2.367zm.912 8.116v-6.176c0-.339.085-.659.234-.939h-3.576c-.84 0-1.52.68-1.52 1.52v5.489c0 .839.68 1.52 1.519 1.52h.373l-.004.084v4.132c0 .647.524 1.171 1.171 1.171h1.781c.648 0 1.172-.523 1.172-1.171v-3.813c-.679-.325-1.15-1.016-1.15-1.817zm-6.248-8.116c1.308 0 2.367-1.06 2.367-2.367 0-1.308-1.06-2.367-2.367-2.367s-2.367 1.06-2.367 2.367c0 1.308 1.06 2.367 2.367 2.367zm.912 8.116v-6.176c0-.339.085-.659.233-.939h-3.575c-.84 0-1.52.68-1.52 1.52v5.489c0 .839.68 1.52 1.519 1.52h.374l-.005.084v4.132c0 .647.525 1.171 1.172 1.171h1.781c.648 0 1.172-.523 1.172-1.171v-3.813c-.68-.325-1.151-1.016-1.151-1.817zm10.084-8.123c1.3 0 2.359-1.058 2.359-2.359s-1.059-2.359-2.359-2.359c-1.301 0-2.36 1.059-2.36 2.359s1.059 2.359 2.36 2.359zm4.14 8.123v-6.176c0-.361-.138-.69-.362-.939-.257-.286-.628-.467-1.042-.467h-5.47c-.414 0-.786.181-1.043.467-.225.249-.363.578-.363.939v6.176c0 .701.517 1.283 1.189 1.388l.216.019h.746l-.023.324-.004.072v5.123c0 .559.455 1.014 1.014 1.014h2.003c.559 0 1.015-.454 1.015-1.014v-5.123l-.004-.063-.023-.326.326-.008h.42l.216-.019c.672-.104 1.189-.686 1.189-1.387z"/>
  </svg>
  <g transform="matrix(0.096907, 0, 0, 0.096907, 5.041241, 485.089294)">
    <g>
      <path d="M299.58,197.045c-4.977-9.181-17.488-16.62-27.924-16.62h-13.995c-0.005-0.152,0.041-0.305,0.016-0.462l-6.216-37.285    h4.829c2.118,0,3.829-1.717,3.829-3.837v-3.844c0-2.112-1.711-3.836-3.829-3.836h-5.144c0-0.013,0-0.023,0-0.033h-9.206    c0.513-0.437,1.041-0.955,1.518-1.628c0.879-1.262,1.392-2.803,1.392-4.456c0-4.352-3.524-7.883-7.876-7.883    c-4.356,0-7.886,3.532-7.886,7.883c0,0.089,0.01,0.183,0.021,0.272c0.015,0.145-0.869,0.582-1.793,1.272    c-0.939,0.693-2.483,0.109-4.229-0.754c-1.026-0.508-2.184-0.79-3.413-0.79c-0.441,0-0.878,0.046-1.295,0.12    c-0.711,0.134-1.99-1.861-4.148-3.364c-1.265-0.889-2.809-1.404-4.474-1.404c-2.057,0-3.931,0.784-5.321,2.084    c-2.361,2.207-3.464,3.979-5.104,3.24c-0.98-0.437-2.047-0.676-3.179-0.676c-3.732,0-6.841,2.6-7.658,6.089h-16.062    c0,0.01,0,0.021,0,0.033h-5.144c-2.118,0-3.839,1.724-3.839,3.836v3.844c0,2.12,1.721,3.836,3.839,3.836h5.991l-6.215,37.275    c-0.025,0.157,0.021,0.319,0.016,0.472h-31.657c-0.005-0.152,0.043-0.305,0.018-0.462l-6.221-37.285h4.832    c2.12,0,3.836-1.716,3.836-3.836v-3.844c0-2.112-1.716-3.836-3.836-3.836h-5.144c0-0.013,0-0.023,0-0.033H50.2    c0,0.01,0,0.021,0,0.033h-5.144c-2.12,0-3.836,1.724-3.836,3.836v3.844c0,2.12,1.716,3.836,3.836,3.836h5.984l-6.208,37.275    c-0.036,0.218,0.02,0.421,0.015,0.634c-10.103,0.823-22.417,7.023-28.485,14.646l-4.207,5.271    c-6.51,8.176-11.911,14.798-12.083,14.798c-0.155,0-0.66,9.475,6.287,17.28c4.758,5.356,11.705,8.719,19.426,8.719    c6.652,0,12.692-2.504,17.255-6.617c7.751-6.997,9.15-6.997,16.899,0c4.57,4.113,10.613,6.617,17.263,6.617    c6.649,0,12.687-2.504,17.257-6.617c7.744-6.997,9.148-6.997,16.899,0c4.565,4.113,10.598,6.617,17.26,6.617    c6.645,0,12.682-2.504,17.247-6.617c7.757-6.997,9.146-6.997,16.902,0c4.575,4.113,10.607,6.617,17.255,6.617    c6.657,0,12.685-2.504,17.25-6.617c7.764-6.997,9.16-6.997,16.909,0c4.57,4.113,10.598,6.617,17.25,6.617    c6.662,0,12.695-2.504,17.266-6.617c7.749-6.997,9.146-6.997,16.899,0c4.56,4.113,10.598,6.617,17.255,6.617    c7.724,0,14.665-3.356,19.423-8.719c6.947-7.806,6.708-17.28,6.876-17.28c0.162,0-3.743-7.439-8.724-16.615L299.58,197.045z     M71.883,180.42H53.465l4.918-29.531c7.15,7.894,18.413,10.61,31.164,10.61c13.358,0,25.052-3.026,32.128-11.812l5.129,30.732    H71.883z M248.958,180.42h-32.372h-40.888l4.926-29.531c7.149,7.894,18.407,10.61,31.158,10.61    c13.354,0,25.055-3.026,32.128-11.812l5.124,30.732H248.958z" fill="#cacaca"/>
      <path d="M175.387,128.259l74.124-25.688c-7.887-18.194-28.106-27.748-47.154-22.173l-1.147-3.301    c1.594-1.353,2.279-3.585,1.543-5.7c-0.959-2.755-3.95-4.212-6.702-3.25c-2.763,0.958-4.22,3.941-3.261,6.708    c0.731,2.105,2.651,3.448,4.794,3.494l1.143,3.303C180.252,89.087,170.269,109.097,175.387,128.259z" fill="#cacaca"/>
      <path d="M50.335,128.259h78.424c-1.44-19.738-17.425-35.401-37.293-36.363v-3.489c1.965-0.77,3.359-2.673,3.359-4.908    c0-2.917-2.366-5.273-5.284-5.273c-2.913,0-5.279,2.356-5.279,5.273c0,2.239,1.399,4.138,3.364,4.908v3.489    C67.77,92.858,51.78,108.516,50.335,128.259z" fill="#cacaca"/>
    </g>
  </g>
  <g transform="matrix(0.096902, 0, 0, 0.096887, 6.062479, 525.090637)">
    <g>
      <path d="M299.58,197.045c-4.977-9.181-17.488-16.62-27.924-16.62h-13.995c-0.005-0.152,0.041-0.305,0.016-0.462l-6.216-37.285    h4.829c2.118,0,3.829-1.717,3.829-3.837v-3.844c0-2.112-1.711-3.836-3.829-3.836h-5.144c0-0.013,0-0.023,0-0.033h-9.206    c0.513-0.437,1.041-0.955,1.518-1.628c0.879-1.262,1.392-2.803,1.392-4.456c0-4.352-3.524-7.883-7.876-7.883    c-4.356,0-7.886,3.532-7.886,7.883c0,0.089,0.01,0.183,0.021,0.272c0.015,0.145-0.869,0.582-1.793,1.272    c-0.939,0.693-2.483,0.109-4.229-0.754c-1.026-0.508-2.184-0.79-3.413-0.79c-0.441,0-0.878,0.046-1.295,0.12    c-0.711,0.134-1.99-1.861-4.148-3.364c-1.265-0.889-2.809-1.404-4.474-1.404c-2.057,0-3.931,0.784-5.321,2.084    c-2.361,2.207-3.464,3.979-5.104,3.24c-0.98-0.437-2.047-0.676-3.179-0.676c-3.732,0-6.841,2.6-7.658,6.089h-16.062    c0,0.01,0,0.021,0,0.033h-5.144c-2.118,0-3.839,1.724-3.839,3.836v3.844c0,2.12,1.721,3.836,3.839,3.836h5.991l-6.215,37.275    c-0.025,0.157,0.021,0.319,0.016,0.472h-31.657c-0.005-0.152,0.043-0.305,0.018-0.462l-6.221-37.285h4.832    c2.12,0,3.836-1.716,3.836-3.836v-3.844c0-2.112-1.716-3.836-3.836-3.836h-5.144c0-0.013,0-0.023,0-0.033H50.2    c0,0.01,0,0.021,0,0.033h-5.144c-2.12,0-3.836,1.724-3.836,3.836v3.844c0,2.12,1.716,3.836,3.836,3.836h5.984l-6.208,37.275    c-0.036,0.218,0.02,0.421,0.015,0.634c-10.103,0.823-22.417,7.023-28.485,14.646l-4.207,5.271    c-6.51,8.176-11.911,14.798-12.083,14.798c-0.155,0-0.66,9.475,6.287,17.28c4.758,5.356,11.705,8.719,19.426,8.719    c6.652,0,12.692-2.504,17.255-6.617c7.751-6.997,9.15-6.997,16.899,0c4.57,4.113,10.613,6.617,17.263,6.617    c6.649,0,12.687-2.504,17.257-6.617c7.744-6.997,9.148-6.997,16.899,0c4.565,4.113,10.598,6.617,17.26,6.617    c6.645,0,12.682-2.504,17.247-6.617c7.757-6.997,9.146-6.997,16.902,0c4.575,4.113,10.607,6.617,17.255,6.617    c6.657,0,12.685-2.504,17.25-6.617c7.764-6.997,9.16-6.997,16.909,0c4.57,4.113,10.598,6.617,17.25,6.617    c6.662,0,12.695-2.504,17.266-6.617c7.749-6.997,9.146-6.997,16.899,0c4.56,4.113,10.598,6.617,17.255,6.617    c7.724,0,14.665-3.356,19.423-8.719c6.947-7.806,6.708-17.28,6.876-17.28c0.162,0-3.743-7.439-8.724-16.615L299.58,197.045z     M71.883,180.42H53.465l4.918-29.531c7.15,7.894,18.413,10.61,31.164,10.61c13.358,0,25.052-3.026,32.128-11.812l5.129,30.732    H71.883z M248.958,180.42h-32.372h-40.888l4.926-29.531c7.149,7.894,18.407,10.61,31.158,10.61    c13.354,0,25.055-3.026,32.128-11.812l5.124,30.732H248.958z" fill="#7e7e7e"/>
      <path d="M175.387,128.259l74.124-25.688c-7.887-18.194-28.106-27.748-47.154-22.173l-1.147-3.301    c1.594-1.353,2.279-3.585,1.543-5.7c-0.959-2.755-3.95-4.212-6.702-3.25c-2.763,0.958-4.22,3.941-3.261,6.708    c0.731,2.105,2.651,3.448,4.794,3.494l1.143,3.303C180.252,89.087,170.269,109.097,175.387,128.259z" fill="#7e7e7e"/>
      <path d="M50.335,128.259h78.424c-1.44-19.738-17.425-35.401-37.293-36.363v-3.489c1.965-0.77,3.359-2.673,3.359-4.908    c0-2.917-2.366-5.273-5.284-5.273c-2.913,0-5.279,2.356-5.279,5.273c0,2.239,1.399,4.138,3.364,4.908v3.489    C67.77,92.858,51.78,108.516,50.335,128.259z" fill="#7e7e7e"/>
    </g>
  </g>
  <g transform="matrix(1, 0, 0, 1, -126.128975, 357.838196)"/>
  <g transform="matrix(1, 0, 0, 1, -126.128975, 357.838196)"/>
  <g transform="matrix(1, 0, 0, 1, -126.128975, 357.838196)"/>
  <g transform="matrix(1, 0, 0, 1, -126.128975, 357.838196)"/>
  <g transform="matrix(1, 0, 0, 1, -126.128975, 357.838196)"/>
  <g transform="matrix(1, 0, 0, 1, -126.128975, 357.838196)"/>
  <g transform="matrix(1, 0, 0, 1, -126.128975, 357.838196)"/>
  <g transform="matrix(1, 0, 0, 1, -126.128975, 357.838196)"/>
  <g transform="matrix(1, 0, 0, 1, -126.128975, 357.838196)"/>
  <g transform="matrix(1, 0, 0, 1, -126.128975, 357.838196)"/>
  <g transform="matrix(1, 0, 0, 1, -126.128975, 357.838196)"/>
  <g transform="matrix(1, 0, 0, 1, -126.128975, 357.838196)"/>
  <g transform="matrix(1, 0, 0, 1, -126.128975, 357.838196)"/>
  <g transform="matrix(1, 0, 0, 1, -126.128975, 357.838196)"/>
  <g transform="matrix(1, 0, 0, 1, -126.128975, 357.838196)"/>
</svg>