<?xml version="1.0" encoding="utf-8"?>
<!-- Generator: Adobe Illustrator 14.0.0, SVG Export Plug-In . SVG Version: 6.00 Build 43363)  -->
<!DOCTYPE svg PUBLIC "-//W3C//DTD SVG 1.1//EN" "http://www.w3.org/Graphics/SVG/1.1/DTD/svg11.dtd">
<svg version="1.1"
	 id="Layer_1" xmlns:cc="http://creativecommons.org/ns#" xmlns:rdf="http://www.w3.org/1999/02/22-rdf-syntax-ns#" xmlns:svg="http://www.w3.org/2000/svg" xmlns:dc="http://purl.org/dc/elements/1.1/" xmlns:sodipodi="http://sodipodi.sourceforge.net/DTD/sodipodi-0.dtd" xmlns:inkscape="http://www.inkscape.org/namespaces/inkscape"
	 xmlns="http://www.w3.org/2000/svg" xmlns:xlink="http://www.w3.org/1999/xlink" x="0px" y="0px" width="87.538px" height="30px"
	 viewBox="184.47 31.948 87.538 30" enable-background="new 184.47 31.948 87.538 30" xml:space="preserve">
<g>
	<path fill="#D1D1D1" d="M205.859,45.828h-16.94c-0.98,0-1.775-0.794-1.775-1.775v-7.37c0-0.981,0.795-1.775,1.775-1.775h16.94
		c0.98,0,1.775,0.794,1.775,1.775v7.37C207.635,45.033,206.84,45.828,205.859,45.828z"/>
	<g>
		<circle fill="#FFFFFF" cx="192.594" cy="36.477" r="0.84"/>
		<circle fill="#FFFFFF" cx="202.31" cy="36.477" r="0.84"/>
	</g>
	<path fill="#4183F2" d="M208.5,55.623l-0.713-7.993l0.707-7.588c0.093-0.996-0.691-1.855-1.69-1.855h-18.627
		c-1,0-1.783,0.859-1.691,1.855l0.707,7.588l-0.714,7.993c-0.089,0.993,0.694,1.85,1.691,1.85h18.641
		C207.806,57.472,208.589,56.616,208.5,55.623z"/>
	<path fill="#2E5ECC" d="M206.802,38.187h-18.627c-1,0-1.783,0.859-1.691,1.855l0.707,7.588h20.595l0.707-7.588
		C208.585,39.046,207.802,38.187,206.802,38.187z"/>
	<path fill="#4183F2" d="M187.191,47.63l-0.714,7.993c-0.089,0.993,0.693,1.85,1.691,1.85h18.641c0.997,0,1.779-0.856,1.69-1.85
		l-0.713-7.993H187.191L187.191,47.63z"/>
	<g>
		<polygon fill="#FFFFFF" points="198.877,45.298 201.25,44.421 201.25,52.64 202.511,52.64 202.511,42.879 198.877,44.202 		"/>
		<path fill="#FFFFFF" d="M192.521,45.554h-1.073c0,0-0.123-2.603,2.99-2.603c0.735,0,2.584,0.101,2.667,2.402
			c0.025,0.712-0.083,1.616-1.424,2.31c0,0,1.552,0.301,1.552,2.43c0,2.128-2.031,2.615-3.159,2.548
			c-1.122-0.069-2.667-0.795-2.667-2.603h0.959c0,0,0.13,1.741,1.936,1.652c1.584-0.077,1.78-1.369,1.78-1.679
			c0-0.311,0-1.79-1.926-1.872h-0.914V47.28h0.886c0,0,1.894-0.297,1.826-1.763c-0.063-1.356-1.169-1.635-1.703-1.635
			C193.718,43.882,192.521,44.166,192.521,45.554z"/>
	</g>
	<g>
		<polygon fill="#C0C3D7" points="202.511,42.879 198.877,44.202 198.877,45.298 201.25,44.421 201.25,47.69 202.511,47.69 		"/>
		<path fill="#C0C3D7" d="M195.681,47.663c1.342-0.694,1.45-1.598,1.424-2.31c-0.083-2.301-1.931-2.402-2.666-2.402
			c-3.114,0-2.99,2.603-2.99,2.603h1.073c0-1.388,1.196-1.671,1.73-1.671c0.534,0,1.64,0.278,1.703,1.635
			c0.069,1.466-1.826,1.763-1.826,1.763h-0.886v0.411h2.538C195.718,47.67,195.681,47.663,195.681,47.663z"/>
	</g>
</g>
<path fill="#4183F2" d="M239.049,48.529c0,2.562-2.004,4.45-4.464,4.45c-2.46,0-4.465-1.888-4.465-4.45
	c0-2.58,2.004-4.451,4.465-4.451C237.045,44.078,239.049,45.949,239.049,48.529z M237.095,48.529c0-1.601-1.162-2.696-2.51-2.696
	s-2.51,1.095-2.51,2.696c0,1.585,1.162,2.697,2.51,2.697S237.095,50.112,237.095,48.529z"/>
<path fill="#4183F2" d="M248.681,48.529c0,2.562-2.005,4.45-4.464,4.45c-2.46,0-4.465-1.888-4.465-4.45
	c0-2.579,2.005-4.451,4.465-4.451C246.676,44.078,248.681,45.949,248.681,48.529z M246.726,48.529c0-1.601-1.161-2.696-2.51-2.696
	s-2.51,1.095-2.51,2.696c0,1.585,1.162,2.697,2.51,2.697S246.726,50.112,246.726,48.529z"/>
<path fill="#4285F4" d="M257.91,44.348v7.99c0,3.286-1.938,4.628-4.229,4.628c-2.157,0-3.455-1.441-3.945-2.622l1.702-0.708
	c0.303,0.725,1.045,1.58,2.242,1.58c1.466,0,2.375-0.906,2.375-2.61v-0.64h-0.068c-0.437,0.54-1.281,1.011-2.344,1.011
	c-2.225,0-4.263-1.938-4.263-4.433c0-2.512,2.038-4.466,4.263-4.466c1.062,0,1.904,0.472,2.344,0.995h0.068V44.35h1.855V44.348z
	 M256.193,48.544c0-1.567-1.045-2.712-2.376-2.712c-1.348,0-2.478,1.145-2.478,2.712c0,1.551,1.13,2.681,2.478,2.681
	C255.147,51.226,256.193,50.096,256.193,48.544z"/>
<path fill="#4183F2" d="M260.97,39.664v13.042h-1.907V39.664H260.97z"/>
<path fill="#4183F2" d="M268.397,49.994l1.518,1.011c-0.489,0.724-1.67,1.972-3.708,1.972c-2.528,0-4.416-1.955-4.416-4.45
	c0-2.646,1.904-4.45,4.197-4.45c2.31,0,3.439,1.837,3.809,2.831l0.202,0.506l-5.949,2.464c0.456,0.893,1.164,1.349,2.157,1.349
	C267.202,51.226,267.891,50.736,268.397,49.994L268.397,49.994z M263.728,48.392l3.978-1.651c-0.219-0.555-0.877-0.943-1.651-0.943
	C265.061,45.798,263.678,46.675,263.728,48.392z"/>
<path fill="#4285F4" d="M222.906,47.371v-1.888h6.362c0.062,0.329,0.094,0.718,0.094,1.14c0,1.417-0.387,3.168-1.635,4.416
	c-1.213,1.264-2.765,1.938-4.819,1.938c-3.808,0-7.01-3.102-7.01-6.91c0-3.809,3.202-6.91,7.01-6.91
	c2.107,0,3.607,0.827,4.735,1.904l-1.332,1.332c-0.808-0.758-1.904-1.348-3.405-1.348c-2.781,0-4.956,2.241-4.956,5.022
	s2.175,5.022,4.956,5.022c1.804,0,2.831-0.724,3.489-1.382c0.534-0.534,0.885-1.296,1.023-2.338L222.906,47.371z"/>
</svg>
