<svg version="1.0" xmlns="http://www.w3.org/2000/svg" viewBox="0 0 40 40" enable-background="new 0 0 40 40"><path fill="#7e7e7e" d="M7.447,14.25v17.298c0,1.158,0.776,2.096,1.732,2.096h21.549c0.956,0,1.731-0.938,1.731-2.096V14.25
				H7.447z M13.556,31.913H8.986v-4.569h4.569V31.913z M13.556,26.188H8.986v-4.569h4.569V26.188z M13.556,20.501H8.986v-4.569
				h4.569V20.501z M19.28,31.913L19.28,31.913h-4.57v-4.569h4.57V31.913z M19.28,26.188L19.28,26.188h-4.57v-4.569h4.57V26.188z
				 M19.28,20.501L19.28,20.501h-4.57v-4.569h4.57V20.501z M25.005,31.913h-4.571v-4.569h4.571V31.913z M25.005,26.188h-4.571
				v-4.569h4.571V26.188z M25.005,20.501h-4.571v-4.569h4.571V20.501z M30.729,31.913h-4.569v-4.569h4.569V31.913z M30.729,26.188
				h-4.569v-4.569h4.569V26.188z M30.729,20.501h-4.569v-4.569h4.569V20.501z M32.459,10.33c0-1.157-0.774-2.096-1.73-2.096h-4.258
				V5.565c0-0.596-0.397-1.08-0.89-1.08c-0.491,0-0.889,0.484-0.889,1.08v2.669h-9.67V5.565c0-0.596-0.398-1.08-0.889-1.08
				c-0.492,0-0.89,0.484-0.89,1.08v2.669H9.18c-0.957,0-1.732,0.939-1.732,2.096v3.053h25.012V10.33z M14.134,12.181
				c-0.904,0-1.636-0.732-1.636-1.636c0-0.574,0.297-1.077,0.746-1.368v0.772c0,0.595,0.397,1.079,0.89,1.079
				c0.491,0,0.889-0.484,0.889-1.079V9.177c0.449,0.292,0.746,0.796,0.746,1.368C15.769,11.448,15.036,12.181,14.134,12.181z
				 M25.582,12.181c-0.904,0-1.637-0.732-1.637-1.636c0-0.574,0.299-1.077,0.748-1.368v0.772c0,0.595,0.396,1.079,0.889,1.079
				c0.491,0,0.89-0.484,0.89-1.079V9.177c0.448,0.292,0.746,0.796,0.746,1.368C27.217,11.448,26.483,12.181,25.582,12.181z"/></svg>