<?xml version="1.0" encoding="utf-8"?>
<!-- Generator: Adobe Illustrator 15.0.0, SVG Export Plug-In . SVG Version: 6.00 Build 0)  -->
<!DOCTYPE svg PUBLIC "-//W3C//DTD SVG 1.0//EN" "http://www.w3.org/TR/2001/REC-SVG-20010904/DTD/svg10.dtd">
<svg version="1.0" id="Слой_1" xmlns="http://www.w3.org/2000/svg" xmlns:xlink="http://www.w3.org/1999/xlink" x="0px" y="0px"
	 width="39.995px" height="39.995px" viewBox="0 0 39.995 39.995" enable-background="new 0 0 39.995 39.995" xml:space="preserve">
<g display="none">
	<g display="inline">
		<path fill="#CACACA" d="M7.447,14.25v17.298c0,1.158,0.776,2.096,1.732,2.096h21.549c0.956,0,1.731-0.938,1.731-2.096V14.25H7.447
			z M13.556,31.913H8.986v-4.569h4.569V31.913z M13.556,26.188H8.986v-4.569h4.569V26.188z M13.556,20.501H8.986v-4.569h4.569
			V20.501z M19.28,31.913h-4.57v-4.569h4.57V31.913z M19.28,26.188h-4.57v-4.569h4.57V26.188z M19.28,20.501h-4.57v-4.569h4.57
			V20.501z M25.005,31.913h-4.571v-4.569h4.571V31.913z M25.005,26.188h-4.571v-4.569h4.571V26.188z M25.005,20.501h-4.571v-4.569
			h4.571V20.501z M30.729,31.913h-4.569v-4.569h4.569V31.913z M30.729,26.188h-4.569v-4.569h4.569V26.188z M30.729,20.501h-4.569
			v-4.569h4.569V20.501z M32.459,10.33c0-1.157-0.774-2.096-1.73-2.096h-4.258V5.565c0-0.596-0.397-1.08-0.89-1.08
			c-0.491,0-0.889,0.484-0.889,1.08v2.669h-9.67V5.565c0-0.596-0.398-1.08-0.889-1.08c-0.492,0-0.89,0.484-0.89,1.08v2.669H9.18
			c-0.957,0-1.732,0.939-1.732,2.096v3.053h25.012V10.33z M14.134,12.181c-0.904,0-1.636-0.732-1.636-1.636
			c0-0.574,0.297-1.077,0.746-1.368v0.772c0,0.595,0.397,1.079,0.89,1.079c0.491,0,0.889-0.484,0.889-1.079V9.177
			c0.449,0.292,0.746,0.796,0.746,1.368C15.769,11.448,15.036,12.181,14.134,12.181z M25.582,12.181
			c-0.904,0-1.637-0.732-1.637-1.636c0-0.574,0.299-1.077,0.748-1.368v0.772c0,0.595,0.396,1.079,0.889,1.079
			c0.491,0,0.89-0.484,0.89-1.079V9.177c0.448,0.292,0.746,0.796,0.746,1.368C27.217,11.448,26.483,12.181,25.582,12.181z"/>
	</g>
</g>
<g>
	<g>
		<path fill="#CACACA" d="M25.562,14.403c1.308,0,2.367-1.06,2.367-2.367c0-1.308-1.06-2.367-2.367-2.367s-2.367,1.06-2.367,2.367
			C23.194,13.344,24.254,14.403,25.562,14.403z M29.513,22.413v-5.489c0-0.84-0.681-1.52-1.52-1.52h-3.576
			c0.148,0.28,0.233,0.6,0.233,0.939v6.479h-0.023c-0.102,0.67-0.535,1.232-1.127,1.515v3.811c0,0.647,0.523,1.171,1.171,1.171
			h1.781c0.647,0,1.172-0.523,1.172-1.171v-4.132c0-0.028-0.003-0.056-0.004-0.084h0.373C28.832,23.932,29.513,23.252,29.513,22.413
			z M31,14.403c1.308,0,2.368-1.06,2.368-2.367c0-1.308-1.061-2.367-2.368-2.367c-1.307,0-2.366,1.06-2.366,2.367
			C28.634,13.344,29.693,14.403,31,14.403z M33.432,15.404h-3.576c0.148,0.28,0.233,0.6,0.233,0.939v6.479h-0.023
			c-0.102,0.67-0.535,1.232-1.127,1.515v3.811c0,0.647,0.523,1.171,1.171,1.171h1.781c0.648,0,1.172-0.523,1.172-1.171v-4.132
			c0-0.028-0.002-0.056-0.004-0.084h0.373c0.839,0,1.52-0.68,1.52-1.52v-5.489C34.951,16.084,34.271,15.404,33.432,15.404z
			 M14.242,14.403c1.307,0,2.367-1.06,2.367-2.367c0-1.308-1.06-2.367-2.367-2.367c-1.308,0-2.367,1.06-2.367,2.367
			C11.875,13.344,12.935,14.403,14.242,14.403z M15.154,22.519v-6.176c0-0.339,0.085-0.659,0.234-0.939h-3.576
			c-0.84,0-1.52,0.68-1.52,1.52v5.489c0,0.839,0.68,1.52,1.519,1.52h0.373c-0.002,0.028-0.004,0.056-0.004,0.084v4.132
			c0,0.647,0.524,1.171,1.171,1.171h1.781c0.648,0,1.172-0.523,1.172-1.171v-3.813C15.625,24.011,15.154,23.32,15.154,22.519z
			 M8.906,14.403c1.308,0,2.367-1.06,2.367-2.367c0-1.308-1.06-2.367-2.367-2.367c-1.307,0-2.367,1.06-2.367,2.367
			C6.539,13.344,7.599,14.403,8.906,14.403z M9.818,22.519v-6.176c0-0.339,0.085-0.659,0.233-0.939H6.476
			c-0.84,0-1.52,0.68-1.52,1.52v5.489c0,0.839,0.68,1.52,1.519,1.52h0.374c-0.002,0.028-0.005,0.056-0.005,0.084v4.132
			c0,0.647,0.525,1.171,1.172,1.171h1.781c0.648,0,1.172-0.523,1.172-1.171v-3.813C10.289,24.011,9.818,23.32,9.818,22.519z
			 M19.902,14.396c1.3,0,2.359-1.058,2.359-2.359c0-1.301-1.059-2.359-2.359-2.359c-1.301,0-2.36,1.059-2.36,2.359
			C17.542,13.337,18.601,14.396,19.902,14.396z M24.042,22.519v-6.176c0-0.361-0.138-0.69-0.362-0.939
			c-0.257-0.286-0.628-0.467-1.042-0.467h-5.47c-0.414,0-0.786,0.181-1.043,0.467c-0.225,0.249-0.363,0.578-0.363,0.939v6.176
			c0,0.701,0.517,1.283,1.189,1.388c0.07,0.011,0.143,0.019,0.216,0.019h0.746L17.89,24.25c-0.002,0.032-0.004,0.052-0.004,0.072
			v5.123c0,0.559,0.455,1.014,1.014,1.014h2.003c0.559,0,1.015-0.454,1.015-1.014v-5.123c0-0.021-0.002-0.043-0.004-0.063
			l-0.023-0.326l0.326-0.008h0.42c0.073,0,0.146-0.008,0.216-0.019C23.525,23.802,24.042,23.22,24.042,22.519z"/>
	</g>
</g>
<path display="none" fill="#CACACA" d="M7.433,9.226c0.001,0,0.002,0,0.003,0.001c0,0-0.001-0.001-0.001-0.001
	S7.434,9.226,7.433,9.226z M10.37,9.184c0.002,0,0.004,0,0.006,0.001C10.374,9.185,10.372,9.184,10.37,9.184
	C10.37,9.184,10.37,9.184,10.37,9.184z M9.657,9.406C9.656,9.406,9.656,9.406,9.657,9.406c-0.001,0-0.002,0-0.003,0
	C9.654,9.406,9.656,9.406,9.657,9.406z M10.38,9.186c0.001,0,0.002,0,0.004-0.001c-0.002,0-0.005,0.001-0.008,0.001
	C10.377,9.185,10.378,9.186,10.38,9.186z M10.39,9.183c0,0-0.001,0-0.001,0c-0.002,0-0.003,0.001-0.005,0.001
	C10.386,9.183,10.388,9.183,10.39,9.183z M10.488,8.911h-0.001c-0.001,0.017-0.002,0.032-0.001,0.05
	C10.484,8.942,10.487,8.928,10.488,8.911z M9.631,9.404c0.003,0,0.005,0.001,0.007,0.001c-0.001,0-0.003-0.001-0.004-0.001
	C9.633,9.404,9.632,9.404,9.631,9.404z M7.446,9.229L7.446,9.229L7.446,9.229C7.445,9.229,7.445,9.229,7.446,9.229z M9.65,9.408
	c0.001,0,0.002,0,0.003-0.001c-0.004,0-0.01,0-0.015-0.001C9.642,9.406,9.646,9.408,9.65,9.408z M7.443,9.229c0,0,0.001,0,0.002,0
	c-0.003,0-0.006-0.001-0.01-0.001C7.438,9.228,7.44,9.229,7.443,9.229z M7.324,8.911C7.326,8.932,7.33,8.952,7.329,8.978
	c0.001-0.024,0-0.046-0.003-0.067H7.324z M7.807,9.004c-0.001,0-0.002,0-0.003,0c0.007,0,0.014,0.001,0.021,0.002
	c-0.001,0-0.002-0.001-0.004-0.001C7.815,9.005,7.811,9.004,7.807,9.004z M13.683,25.994h4.699v-0.806h-4.699V25.994z M8.494,9.119
	c-0.003,0-0.006,0.001-0.008,0.002C8.494,9.12,8.502,9.118,8.511,9.119c-0.001,0-0.002-0.001-0.003-0.001
	C8.502,9.118,8.499,9.119,8.494,9.119z M20.232,29.082h7.879v-9.085h-7.879V29.082z M13.683,20.802h4.699v-0.805h-4.699V20.802z
	 M13.683,28.456h4.699V27.65h-4.699V28.456z M13.683,31.006h4.699V30.2h-4.699V31.006z M13.683,23.442h4.699v-0.805h-4.699V23.442z
	 M8.862,9.491c-0.008,0-0.017-0.002-0.025-0.005c0.007,0.001,0.015,0.006,0.022,0.006C8.86,9.492,8.861,9.491,8.862,9.491z
	 M8.138,9.427C8.129,9.429,8.121,9.43,8.113,9.43c0.002,0,0.003,0.001,0.006,0.001C8.125,9.432,8.131,9.428,8.138,9.427z
	 M6.105,8.107c-0.112,0.237,0,0.333,0.249,0.215c0.249-0.119,0.4,0.003,0.336,0.271C6.625,8.86,6.747,8.947,6.96,8.786
	c0.026-0.02,0.051-0.036,0.076-0.048C7.04,8.736,7.043,8.736,7.048,8.733c0.02-0.009,0.038-0.017,0.056-0.021
	C7.111,8.71,7.118,8.71,7.125,8.709c0.013-0.002,0.026-0.004,0.039-0.003c0.009,0,0.017,0.002,0.025,0.004
	c0.009,0.002,0.018,0.005,0.026,0.007c0.009,0.004,0.018,0.01,0.026,0.016c0.006,0.004,0.011,0.008,0.016,0.013
	c0.009,0.008,0.018,0.019,0.025,0.029C7.286,8.78,7.288,8.784,7.29,8.789c0.008,0.014,0.015,0.029,0.02,0.046
	c0.001,0.003,0.001,0.006,0.002,0.009c0.006,0.021,0.01,0.042,0.012,0.066c0.002,0.021,0.004,0.043,0.003,0.068c0,0,0-0.001,0-0.001
	c0,0.001,0,0.001,0,0.002c-0.006,0.156,0.036,0.24,0.105,0.247C7.438,9.226,7.44,9.228,7.445,9.228
	C7.492,9.226,7.55,9.191,7.614,9.118C7.68,9.043,7.745,9.007,7.803,9.004c0,0,0,0,0,0c0.001,0,0.002,0,0.004-0.001
	c0.001,0,0.004,0,0.005,0c0.003,0,0.006,0.001,0.009,0.002c0.002,0.001,0.004,0.001,0.006,0.001c0,0-0.001,0-0.001,0
	c0.079,0.007,0.142,0.082,0.163,0.222C8.023,9.479,8.164,9.5,8.297,9.274c0.058-0.097,0.124-0.146,0.188-0.153
	c-0.001,0-0.003,0-0.004,0.001C8.485,9.121,8.489,9.12,8.494,9.119c0.003-0.001,0.007-0.002,0.01-0.002c0,0,0.001,0,0.003,0
	c0,0,0.002,0.001,0.003,0.001l0,0c0.075,0.004,0.146,0.068,0.191,0.194C8.79,9.559,8.938,9.549,9.031,9.291
	c0.092-0.259,0.286-0.279,0.429-0.043C9.52,9.346,9.581,9.396,9.633,9.404c0.007,0.001,0.015,0.002,0.022,0.002
	C9.718,9.4,9.767,9.33,9.786,9.192C9.822,8.927,10,8.871,10.182,9.066c0.073,0.078,0.137,0.114,0.188,0.118
	c0.006,0,0.012-0.001,0.018-0.001c0.065-0.008,0.104-0.081,0.094-0.22c-0.001-0.02,0-0.036,0.001-0.052h0.002
	c0.003-0.079,0.025-0.137,0.061-0.172c0.001-0.001,0.002-0.001,0.002-0.002c0.01-0.009,0.021-0.016,0.034-0.021
	c0.008-0.004,0.017-0.006,0.027-0.008c0.005-0.001,0.011-0.003,0.017-0.003c0.056-0.005,0.123,0.018,0.197,0.074
	c0.096,0.07,0.17,0.087,0.217,0.061c0.054-0.029,0.071-0.114,0.037-0.25c-0.056-0.222,0.045-0.338,0.229-0.289
	c0.026,0.007,0.053,0.018,0.083,0.031c0.03,0.015,0.059,0.025,0.084,0.033c0.005,0.001,0.009,0.001,0.014,0.003
	c0.019,0.004,0.038,0.008,0.053,0.009c0.009,0,0.015-0.002,0.022-0.003c0.011-0.001,0.022-0.001,0.031-0.004
	c0.003-0.001,0.004-0.003,0.007-0.004c0.069-0.03,0.078-0.129,0.007-0.279c-0.118-0.249,0.005-0.399,0.271-0.336
	c0.162,0.039,0.255,0.008,0.27-0.067c0.01-0.05-0.013-0.119-0.078-0.204c-0.101-0.133-0.104-0.248-0.028-0.312
	c0.046-0.038,0.12-0.058,0.219-0.055c0.135,0.005,0.218-0.025,0.243-0.077c0.005-0.011,0.006-0.022,0.007-0.035
	c0-0.003,0.002-0.005,0.001-0.007c-0.002-0.047-0.037-0.104-0.109-0.168c-0.047-0.041-0.08-0.083-0.098-0.123
	c-0.054-0.119,0.021-0.22,0.208-0.248c0.102-0.016,0.163-0.048,0.188-0.09c0.037-0.062-0.007-0.142-0.142-0.223
	c-0.225-0.134-0.208-0.315,0.038-0.404c0.122-0.043,0.18-0.101,0.177-0.159c-0.001-0.061-0.067-0.122-0.199-0.168
	c-0.258-0.093-0.278-0.286-0.043-0.429c0.147-0.09,0.192-0.181,0.14-0.246c-0.031-0.039-0.096-0.068-0.195-0.082
	c-0.232-0.031-0.305-0.171-0.188-0.328c0.017-0.022,0.037-0.045,0.062-0.068c0.024-0.022,0.045-0.045,0.063-0.066
	c0.119-0.147,0.056-0.25-0.165-0.236c-0.22,0.013-0.311-0.103-0.23-0.267c0.001-0.002,0.003-0.005,0.004-0.006
	c0.011-0.022,0.024-0.044,0.042-0.068c0.004-0.005,0.006-0.01,0.01-0.015c0.013-0.02,0.026-0.039,0.035-0.056
	c0.081-0.157-0.011-0.237-0.233-0.181c-0.253,0.064-0.369-0.077-0.257-0.314c0.112-0.236,0-0.333-0.249-0.215
	c-0.249,0.119-0.4-0.003-0.336-0.271c0.064-0.267-0.058-0.354-0.271-0.193c-0.026,0.019-0.051,0.035-0.075,0.048
	c-0.004,0.001-0.008,0.003-0.012,0.005c-0.019,0.009-0.038,0.016-0.056,0.021c-0.007,0.002-0.015,0.002-0.022,0.003
	c-0.013,0.002-0.026,0.003-0.039,0.003c-0.008,0-0.017-0.003-0.025-0.004c-0.009-0.002-0.018-0.004-0.026-0.008
	c-0.01-0.004-0.019-0.009-0.027-0.015c-0.005-0.004-0.01-0.008-0.015-0.013c-0.009-0.008-0.018-0.018-0.025-0.029
	c-0.002-0.004-0.005-0.009-0.007-0.013c-0.008-0.014-0.015-0.029-0.02-0.046c-0.001-0.003-0.001-0.006-0.002-0.009
	c-0.006-0.02-0.01-0.042-0.012-0.066c-0.002-0.021-0.004-0.043-0.003-0.068c0.01-0.268-0.118-0.33-0.286-0.14
	c-0.167,0.191-0.335,0.142-0.372-0.11C9.701,1.674,9.561,1.653,9.428,1.879C9.294,2.104,9.112,2.087,9.023,1.841
	C8.935,1.594,8.787,1.604,8.694,1.863C8.602,2.122,8.408,2.142,8.266,1.907c-0.144-0.235-0.291-0.21-0.327,0.054
	C7.903,2.226,7.725,2.283,7.542,2.087c-0.182-0.196-0.317-0.149-0.3,0.104c0.001,0.02,0,0.035-0.001,0.052H7.239
	C7.236,2.322,7.214,2.38,7.179,2.415C7.178,2.416,7.176,2.416,7.176,2.417c-0.01,0.009-0.021,0.016-0.033,0.021
	C7.134,2.442,7.125,2.445,7.116,2.446C7.11,2.448,7.104,2.45,7.099,2.45C7.043,2.455,6.976,2.431,6.901,2.376
	C6.806,2.306,6.73,2.289,6.684,2.314C6.63,2.344,6.612,2.429,6.646,2.564c0.057,0.222-0.045,0.337-0.229,0.289
	C6.392,2.846,6.365,2.836,6.335,2.822C6.305,2.808,6.277,2.797,6.251,2.789C6.246,2.788,6.242,2.788,6.236,2.787
	C6.218,2.782,6.199,2.778,6.184,2.778c-0.009,0-0.015,0.002-0.022,0.003C6.15,2.782,6.139,2.782,6.13,2.785
	c-0.004,0-0.005,0.002-0.007,0.003C6.054,2.819,6.044,2.917,6.116,3.067c0.118,0.249-0.005,0.4-0.271,0.336
	C5.683,3.365,5.589,3.395,5.575,3.471C5.564,3.521,5.588,3.59,5.652,3.675c0.101,0.133,0.104,0.248,0.028,0.313
	c-0.046,0.038-0.12,0.058-0.219,0.055C5.327,4.037,5.244,4.066,5.219,4.119c-0.005,0.01-0.007,0.022-0.007,0.035
	c0,0.003-0.002,0.005-0.001,0.008c0.002,0.046,0.038,0.104,0.11,0.167c0.047,0.042,0.08,0.083,0.098,0.123
	C5.471,4.571,5.396,4.672,5.209,4.7C5.107,4.716,5.046,4.749,5.021,4.79C4.984,4.851,5.029,4.933,5.163,5.013
	c0.226,0.133,0.209,0.315-0.038,0.404c-0.121,0.042-0.18,0.101-0.177,0.159c0.001,0.061,0.067,0.122,0.198,0.168
	C5.405,5.837,5.425,6.03,5.19,6.174c-0.146,0.09-0.192,0.181-0.14,0.246c0.03,0.039,0.096,0.068,0.195,0.082
	C5.477,6.532,5.55,6.672,5.434,6.829C5.417,6.851,5.396,6.874,5.372,6.896C5.348,6.919,5.327,6.942,5.31,6.963
	C5.19,7.11,5.253,7.213,5.474,7.199c0.22-0.013,0.312,0.103,0.231,0.268C5.704,7.469,5.702,7.471,5.701,7.473
	C5.69,7.495,5.677,7.517,5.659,7.541c-0.004,0.006-0.006,0.01-0.01,0.017C5.636,7.576,5.623,7.595,5.614,7.612
	C5.534,7.769,5.626,7.849,5.848,7.793C6.102,7.729,6.217,7.87,6.105,8.107z M9.234,9.083c0.003,0,0.005-0.001,0.007-0.001
	c0.008,0,0.017,0.003,0.025,0.005C9.256,9.085,9.246,9.083,9.234,9.083z M9.961,8.951c0.005,0,0.01-0.004,0.015-0.004
	c0.003,0,0.006,0.001,0.007,0.001C9.976,8.948,9.968,8.95,9.961,8.951z M8.248,4.93l0.614-1.245L9.476,4.93l1.374,0.2L9.856,6.098
	l0.235,1.368L8.862,6.821L7.633,7.466l0.235-1.368L6.874,5.13L8.248,4.93z M13.401,6.771c-0.023,0.041-0.051,0.082-0.085,0.123
	c0.021,0.193-0.024,0.349-0.051,0.418c-0.03,0.08-0.115,0.261-0.306,0.405c-0.01,0.156-0.057,0.278-0.092,0.348
	c-0.058,0.116-0.139,0.213-0.236,0.292v0.831h18.331v23.296c0,0.627-0.444,1.566-1.109,1.566h-19.35V17.702l-1.715-1.056
	l-0.283,0.185v19.635h21.348c1.591,0,3.107-1.88,3.107-3.983V6.771H13.401z M14.386,17.402h12.321v-1.567H14.386V17.402z
	 M11.824,17.567V9.142c-0.005,0.001-0.009,0.004-0.015,0.005c-0.031,0.065-0.067,0.121-0.104,0.167
	c-0.153,0.196-0.378,0.318-0.625,0.34c-0.017,0.021-0.033,0.04-0.049,0.057c-0.171,0.182-0.402,0.282-0.652,0.282
	c-0.04,0-0.083-0.002-0.129-0.009c-0.175,0.157-0.394,0.231-0.6,0.231c-0.081,0-0.191-0.011-0.312-0.055
	c-0.2,0.123-0.395,0.139-0.479,0.139c-0.079,0-0.253-0.013-0.436-0.113c-0.118,0.042-0.225,0.053-0.305,0.053
	c-0.195,0-0.402-0.066-0.572-0.208c-0.037,0.004-0.071,0.006-0.104,0.006c-0.245,0-0.474-0.098-0.645-0.275
	c-0.024-0.026-0.05-0.055-0.075-0.088C6.465,9.658,6.229,9.536,6.069,9.333c-0.038-0.048-0.077-0.107-0.11-0.177
	c-0.02-0.004-0.038-0.013-0.058-0.019v8.43l2.872-1.876L11.824,17.567z"/>
<g display="none">
	<g display="inline">
		<path fill="#CACACA" d="M33.195,5.01H6.712c-0.696,0-1.261,0.564-1.261,1.261c0,0.696,0.565,1.261,1.261,1.261h1.064v14.881
			c0,0.435,0.313,0.781,0.721,0.867c0.146,0.082,0.306,0.142,0.485,0.142h9.962v3.87l-5.82,5.821c-0.394,0.394-0.394,1.032,0,1.426
			c0.197,0.197,0.455,0.296,0.713,0.296c0.258,0,0.516-0.099,0.714-0.296l4.394-4.394v3.964c0,0.558,0.452,1.009,1.009,1.009
			c0.558,0,1.009-0.451,1.008-1.009v-4.107l4.679,4.678c0.196,0.197,0.455,0.296,0.713,0.296c0.259,0,0.517-0.099,0.714-0.296
			c0.394-0.394,0.394-1.032,0-1.427l-6.105-6.104v-3.728h9.964c0.139,0,0.271-0.028,0.393-0.08c0.361-0.153,0.615-0.512,0.616-0.929
			V7.532h1.261c0.696,0,1.261-0.564,1.261-1.261C34.456,5.575,33.892,5.01,33.195,5.01z M29.916,21.404H9.585V7.532h20.331V21.404z
			 M12.716,18.501c0.196,0,0.392-0.077,0.54-0.227l1.948-1.985l0.991,1.616c0.01,0.017,0.029,0.023,0.04,0.039
			c0.041,0.056,0.078,0.114,0.135,0.159c0.023,0.018,0.05,0.025,0.074,0.041c0.025,0.016,0.048,0.028,0.075,0.041
			c0.103,0.049,0.21,0.082,0.32,0.082h0h0c0.097,0,0.193-0.026,0.287-0.064c0.021-0.009,0.04-0.016,0.059-0.026
			c0.016-0.008,0.033-0.012,0.049-0.021c0.053-0.033,0.089-0.08,0.132-0.123c0.021-0.021,0.048-0.03,0.067-0.053l3.951-5
			l1.189,1.779c0.01,0.015,0.028,0.021,0.039,0.035c0.014,0.019,0.02,0.042,0.036,0.059c0.041,0.044,0.093,0.067,0.141,0.099
			c0.031,0.021,0.056,0.047,0.089,0.063c0.103,0.049,0.213,0.08,0.325,0.08c0.083,0,0.165-0.018,0.245-0.045
			c0.027-0.009,0.052-0.024,0.078-0.037c0.032-0.016,0.066-0.025,0.097-0.046c0.016-0.01,0.023-0.027,0.038-0.039
			c0.018-0.014,0.04-0.02,0.057-0.035l3.045-2.825c0.307-0.284,0.324-0.763,0.04-1.069c-0.285-0.306-0.763-0.324-1.069-0.04
			L23.34,13.18l-1.216-1.818c-0.232-0.348-0.703-0.44-1.05-0.209c-0.043,0.029-0.07,0.071-0.105,0.106
			c-0.125,0.047-0.244,0.115-0.333,0.228l-3.718,4.703l-0.93-1.517c-0.018-0.029-0.045-0.045-0.066-0.071
			c-0.019-0.023-0.027-0.051-0.049-0.073c-0.014-0.014-0.033-0.018-0.047-0.031c-0.042-0.035-0.085-0.062-0.133-0.086
			c-0.041-0.022-0.08-0.042-0.124-0.057c-0.048-0.015-0.095-0.021-0.146-0.027c-0.046-0.005-0.091-0.009-0.138-0.006
			c-0.049,0.004-0.096,0.016-0.145,0.03c-0.047,0.013-0.092,0.027-0.136,0.05c-0.019,0.009-0.04,0.01-0.058,0.021
			c-0.028,0.018-0.045,0.045-0.07,0.065c-0.024,0.019-0.052,0.028-0.074,0.05l-2.627,2.675c-0.293,0.298-0.288,0.777,0.01,1.07
			C12.333,18.429,12.524,18.501,12.716,18.501z"/>
	</g>
</g>
<g display="none">
	<g display="inline">
		<path fill="#CACACA" d="M19.953,5.812c-7.859,0-14.252,6.394-14.252,14.252c0,7.859,6.394,14.252,14.252,14.252
			c7.859,0,14.253-6.394,14.253-14.252S27.813,5.812,19.953,5.812z M19.953,31.66c-6.394,0-11.595-5.201-11.595-11.595
			c0-6.394,5.202-11.595,11.595-11.595s11.596,5.202,11.596,11.595C31.549,26.458,26.347,31.66,19.953,31.66z M26.433,17.575
			l-5.627,0.695c-0.302-0.222-0.67-0.358-1.074-0.358c-1.004,0-1.817,0.813-1.817,1.817s0.813,1.817,1.817,1.817
			c0.731,0,1.358-0.435,1.646-1.059l5.193-2.432C27.366,17.684,27.304,17.467,26.433,17.575z M29.405,19.564
			c-0.008-0.163,0.009-0.367-0.021-0.603c-0.029-0.236-0.063-0.508-0.1-0.813c-0.07-0.298-0.137-0.632-0.232-0.99
			c-0.06-0.176-0.121-0.359-0.185-0.549c-0.033-0.095-0.063-0.192-0.1-0.29c-0.043-0.095-0.087-0.191-0.13-0.289
			c-0.324-0.797-0.843-1.637-1.542-2.439c-0.697-0.803-1.596-1.563-2.681-2.142c-1.079-0.582-2.341-0.986-3.692-1.098
			c-1.322-0.114-2.751,0.037-4.082,0.521c-1.334,0.476-2.583,1.257-3.61,2.27c-1.012,1.027-1.793,2.275-2.269,3.61
			c-0.056,0.167-0.129,0.33-0.171,0.501l-0.129,0.512c-0.099,0.335-0.13,0.694-0.185,1.041l-0.037,0.261l-0.012,0.251
			c-0.007,0.167-0.014,0.333-0.021,0.499c-0.003,0.089-0.008,0.15-0.009,0.263l0.015,0.255c0.01,0.169,0.02,0.338,0.029,0.505
			c0.111,1.343,0.516,2.605,1.098,3.686c0.579,1.085,1.339,1.982,2.142,2.681c0.803,0.698,1.643,1.216,2.439,1.541
			c0.098,0.044,0.194,0.088,0.289,0.13c0.097,0.037,0.195,0.067,0.29,0.1c0.189,0.063,0.373,0.125,0.548,0.185
			c0.358,0.097,0.692,0.163,0.99,0.233c0.305,0.037,0.577,0.07,0.814,0.1c0.236,0.029,0.438,0.014,0.601,0.021
			c0.327,0.005,0.5,0.008,0.5,0.008s-0.173-0.015-0.499-0.044c-0.162-0.02-0.366-0.018-0.597-0.064
			c-0.231-0.043-0.497-0.092-0.794-0.146c-0.291-0.086-0.615-0.169-0.96-0.281c-0.169-0.067-0.345-0.137-0.527-0.21
			c-0.091-0.036-0.185-0.07-0.277-0.111c-0.09-0.047-0.182-0.094-0.275-0.143c-0.757-0.356-1.54-0.903-2.288-1.6
			c-0.195-0.183-0.385-0.381-0.57-0.589l0.569-0.834l-0.804,0.549c-0.429-0.521-0.826-1.102-1.153-1.752
			c-0.524-1.04-0.866-2.241-0.955-3.503c-0.006-0.158-0.013-0.317-0.02-0.477l-0.011-0.239l0.003-0.049l1.793-0.201l-1.77-0.218
			c0.005-0.087,0.011-0.175,0.016-0.263l0.016-0.25l0.039-0.236c0.057-0.315,0.086-0.633,0.187-0.95l0.125-0.478
			c0.039-0.16,0.11-0.311,0.163-0.467c0.369-1.018,0.938-1.974,1.649-2.813l0.721,0.492l-0.503-0.736
			c0.091-0.1,0.174-0.206,0.269-0.301c0.954-0.948,2.115-1.684,3.359-2.135c0.896-0.324,1.823-0.504,2.749-0.548l0.239,1.789
			l0.239-1.792c0.203,0.001,0.406-0.003,0.608,0.011c1.252,0.089,2.454,0.43,3.494,0.954c1.042,0.524,1.926,1.215,2.627,1.958
			c0.009,0.01,0.018,0.021,0.027,0.031l-0.525,0.77l0.749-0.512c0.573,0.659,1.036,1.338,1.349,1.999
			c0.048,0.093,0.096,0.185,0.142,0.275c0.041,0.092,0.075,0.186,0.112,0.277c0.072,0.182,0.142,0.358,0.209,0.527
			c0.113,0.345,0.196,0.669,0.282,0.96c0.054,0.298,0.103,0.563,0.146,0.795c0.048,0.231,0.046,0.434,0.065,0.595
			c0.028,0.325,0.044,0.499,0.044,0.499S29.41,19.89,29.405,19.564z"/>
	</g>
</g>
</svg>
