<svg version="1.0" xmlns="http://www.w3.org/2000/svg" viewBox="0 0 39.995 39.995" enable-background="new 0 0 39.995 39.995"><path fill="#7e7e7e" d="M18.158,12.278c0-1.203,0.976-2.18,2.179-2.18s2.18,0.977,2.18,2.18c0,0.704-0.336,1.329-0.854,1.727
		c-0.188,0.145-0.401,0.261-0.633,0.337c-0.218,0.073-0.45,0.115-0.693,0.115s-0.476-0.042-0.694-0.115
		c-0.23-0.077-0.442-0.192-0.632-0.337C18.493,13.608,18.158,12.982,18.158,12.278z M25.166,20.678v-4.003
		c0-0.534-0.31-0.992-0.755-1.217c-0.186-0.094-0.393-0.152-0.614-0.152H22.21h-0.232l-0.003,0.003h-3.277l-0.002-0.003h-0.232
		h-1.585c-0.222,0-0.429,0.058-0.616,0.152c-0.445,0.225-0.754,0.683-0.754,1.217v4.003c1.573-0.212,3.19-0.321,4.829-0.321
		S23.592,20.467,25.166,20.678z M30.135,15.688c0.188,0.145,0.401,0.261,0.631,0.337c0.219,0.074,0.451,0.116,0.695,0.116
		c0.241,0,0.475-0.041,0.692-0.115c0.232-0.077,0.443-0.193,0.633-0.338c0.518-0.398,0.854-1.022,0.854-1.727
		c0-1.204-0.976-2.179-2.179-2.179c-1.204,0-2.18,0.975-2.18,2.179C29.281,14.665,29.616,15.289,30.135,15.688z M35.167,18.358
		c0-0.535-0.237-0.992-0.578-1.217c-0.144-0.095-0.303-0.152-0.474-0.152h-1.217H32.72l-0.001,0.002h-2.518l-0.003-0.002h-0.177
		h-1.218c-0.17,0-0.329,0.057-0.472,0.152c-0.343,0.225-0.58,0.683-0.58,1.217v2.774c2.663,0.57,5.166,1.449,7.415,2.609V18.358
		L35.167,18.358z M7.888,15.688c0.188,0.145,0.401,0.261,0.63,0.337c0.218,0.074,0.452,0.116,0.695,0.116
		c0.242,0,0.475-0.041,0.693-0.115c0.23-0.077,0.443-0.193,0.633-0.338c0.517-0.398,0.854-1.022,0.854-1.727
		c0-1.204-0.977-2.179-2.18-2.179c-1.204,0-2.179,0.975-2.179,2.179C7.035,14.665,7.37,15.289,7.888,15.688z M12.921,18.358
		c0-0.535-0.238-0.992-0.579-1.217c-0.142-0.095-0.302-0.152-0.472-0.152h-1.217h-0.178l-0.002,0.002H7.956l-0.003-0.002H7.775
		H6.558c-0.171,0-0.33,0.057-0.473,0.152c-0.342,0.225-0.58,0.683-0.58,1.217v5.382c2.25-1.159,4.752-2.038,7.415-2.608
		L12.921,18.358L12.921,18.358z M35.031,24.994c-2.15-1.155-4.608-2.063-7.279-2.659c-0.843-0.188-1.705-0.344-2.586-0.467
		c-1.559-0.219-3.174-0.334-4.83-0.334c-1.655,0-3.27,0.115-4.829,0.334c-0.881,0.123-1.745,0.279-2.586,0.467
		c-2.67,0.596-5.128,1.504-7.277,2.659c-1.566,0.844-2.97,1.815-4.17,2.896h5.521h4.208h6.245h5.479h6.316h4.207H39.2
		C37.999,26.81,36.596,25.838,35.031,24.994z"/></svg>