<svg version="1.0" xmlns="http://www.w3.org/2000/svg" viewBox="0 0 40 40" enable-background="new 0 0 40 40"><path fill="#cacaca" d="M19.953,5.812c-7.859,0-14.252,6.394-14.252,14.252c0,7.859,6.394,14.252,14.252,14.252
			c7.859,0,14.253-6.394,14.253-14.252S27.813,5.812,19.953,5.812z M19.953,31.66c-6.394,0-11.595-5.201-11.595-11.595
			c0-6.394,5.202-11.595,11.595-11.595s11.596,5.202,11.596,11.595C31.549,26.458,26.347,31.66,19.953,31.66z M26.433,17.575
			l-5.627,0.695c-0.302-0.222-0.67-0.358-1.074-0.358c-1.004,0-1.817,0.813-1.817,1.817s0.813,1.817,1.817,1.817
			c0.731,0,1.358-0.435,1.646-1.059l5.193-2.432C27.366,17.684,27.304,17.467,26.433,17.575z M29.405,19.564
			c-0.008-0.163,0.009-0.367-0.021-0.603c-0.029-0.236-0.063-0.508-0.1-0.813c-0.07-0.298-0.137-0.632-0.232-0.99
			c-0.06-0.176-0.121-0.359-0.185-0.549c-0.033-0.095-0.063-0.192-0.1-0.29c-0.043-0.095-0.087-0.191-0.13-0.289
			c-0.324-0.797-0.843-1.637-1.542-2.439c-0.697-0.803-1.596-1.563-2.681-2.142c-1.079-0.582-2.341-0.986-3.692-1.098
			c-1.322-0.114-2.751,0.037-4.082,0.521c-1.334,0.476-2.583,1.257-3.61,2.27c-1.012,1.027-1.793,2.275-2.269,3.61
			c-0.056,0.167-0.129,0.33-0.171,0.501l-0.129,0.512c-0.099,0.335-0.13,0.694-0.185,1.041l-0.037,0.261l-0.012,0.251
			c-0.007,0.167-0.014,0.333-0.021,0.499c-0.003,0.089-0.008,0.15-0.009,0.263l0.015,0.255c0.01,0.169,0.02,0.338,0.029,0.505
			c0.111,1.343,0.516,2.605,1.098,3.686c0.579,1.085,1.339,1.982,2.142,2.681c0.803,0.698,1.643,1.216,2.439,1.541
			c0.098,0.044,0.194,0.088,0.289,0.13c0.097,0.037,0.195,0.067,0.29,0.1c0.189,0.063,0.373,0.125,0.548,0.185
			c0.358,0.097,0.692,0.163,0.99,0.233c0.305,0.037,0.577,0.07,0.814,0.1c0.236,0.029,0.438,0.014,0.601,0.021
			c0.327,0.005,0.5,0.008,0.5,0.008s-0.173-0.015-0.499-0.044c-0.162-0.02-0.366-0.018-0.597-0.064
			c-0.231-0.043-0.497-0.092-0.794-0.146c-0.291-0.086-0.615-0.169-0.96-0.281c-0.169-0.067-0.345-0.137-0.527-0.21
			c-0.091-0.036-0.185-0.07-0.277-0.111c-0.09-0.047-0.182-0.094-0.275-0.143c-0.757-0.356-1.54-0.903-2.288-1.6
			c-0.195-0.183-0.385-0.381-0.57-0.589l0.569-0.834l-0.804,0.549c-0.429-0.521-0.826-1.102-1.153-1.752
			c-0.524-1.04-0.866-2.241-0.955-3.503c-0.006-0.158-0.013-0.317-0.02-0.477l-0.011-0.239l0.003-0.049l1.793-0.201l-1.77-0.218
			c0.005-0.087,0.011-0.175,0.016-0.263l0.016-0.25l0.039-0.236c0.057-0.315,0.086-0.633,0.187-0.95l0.125-0.478
			c0.039-0.16,0.11-0.311,0.163-0.467c0.369-1.018,0.938-1.974,1.649-2.813l0.721,0.492l-0.503-0.736
			c0.091-0.1,0.174-0.206,0.269-0.301c0.954-0.948,2.115-1.684,3.359-2.135c0.896-0.324,1.823-0.504,2.749-0.548l0.239,1.789
			l0.239-1.792c0.203,0.001,0.406-0.003,0.608,0.011c1.252,0.089,2.454,0.43,3.494,0.954c1.042,0.524,1.926,1.215,2.627,1.958
			c0.009,0.01,0.018,0.021,0.027,0.031l-0.525,0.77l0.749-0.512c0.573,0.659,1.036,1.338,1.349,1.999
			c0.048,0.093,0.096,0.185,0.142,0.275c0.041,0.092,0.075,0.186,0.112,0.277c0.072,0.182,0.142,0.358,0.209,0.527
			c0.113,0.345,0.196,0.669,0.282,0.96c0.054,0.298,0.103,0.563,0.146,0.795c0.048,0.231,0.046,0.434,0.065,0.595
			c0.028,0.325,0.044,0.499,0.044,0.499S29.41,19.89,29.405,19.564z"/></svg>