<svg version="1.0" xmlns="http://www.w3.org/2000/svg" viewBox="0 0 40 40" enable-background="new 0 0 40 40"><path fill="#7e7e7e" d="M7.433,9.226c0.001,0,0.002,0,0.003,0.001c0,0-0.001-0.001-0.001-0.001S7.434,9.226,7.433,9.226z
		 M10.37,9.184c0.002,0,0.004,0,0.006,0.001C10.374,9.185,10.372,9.184,10.37,9.184C10.37,9.184,10.37,9.184,10.37,9.184z
		 M9.657,9.406C9.656,9.406,9.656,9.406,9.657,9.406c-0.001,0-0.002,0-0.003,0C9.654,9.406,9.656,9.406,9.657,9.406z M10.38,9.186
		c0.001,0,0.002,0,0.004-0.001c-0.002,0-0.005,0.001-0.008,0.001C10.377,9.185,10.378,9.186,10.38,9.186z M10.39,9.183
		c0,0-0.001,0-0.001,0c-0.002,0-0.003,0.001-0.005,0.001C10.386,9.183,10.388,9.183,10.39,9.183z M10.488,8.911h-0.001
		c-0.001,0.017-0.002,0.032-0.001,0.05C10.484,8.942,10.487,8.928,10.488,8.911z M9.631,9.404c0.003,0,0.005,0.001,0.007,0.001
		c-0.001,0-0.003-0.001-0.004-0.001C9.633,9.404,9.632,9.404,9.631,9.404z M7.446,9.229L7.446,9.229L7.446,9.229
		C7.445,9.229,7.445,9.229,7.446,9.229z M9.65,9.408c0.001,0,0.002,0,0.003-0.001c-0.004,0-0.01,0-0.015-0.001
		C9.642,9.406,9.646,9.408,9.65,9.408z M7.443,9.229c0,0,0.001,0,0.002,0c-0.003,0-0.006-0.001-0.01-0.001
		C7.438,9.228,7.44,9.229,7.443,9.229z M7.324,8.911C7.326,8.932,7.33,8.952,7.329,8.978c0.001-0.024,0-0.046-0.003-0.067H7.324z
		 M7.807,9.004c-0.001,0-0.002,0-0.003,0c0.007,0,0.014,0.001,0.021,0.002c-0.001,0-0.002-0.001-0.004-0.001
		C7.815,9.005,7.811,9.004,7.807,9.004z M13.683,25.994h4.699v-0.806h-4.699V25.994z M8.494,9.119c-0.003,0-0.006,0.001-0.008,0.002
		C8.494,9.12,8.502,9.118,8.511,9.119c-0.001,0-0.002-0.001-0.003-0.001C8.502,9.118,8.499,9.119,8.494,9.119z M20.232,29.082h7.879
		v-9.085h-7.879V29.082z M13.683,20.802h4.699v-0.805h-4.699V20.802z M13.683,28.456h4.699V27.65h-4.699V28.456z M13.683,31.006
		h4.699V30.2h-4.699V31.006z M13.683,23.442h4.699v-0.805h-4.699V23.442z M8.862,9.491c-0.008,0-0.017-0.002-0.025-0.005
		c0.007,0.001,0.015,0.006,0.022,0.006C8.86,9.492,8.861,9.491,8.862,9.491z M8.138,9.427C8.129,9.429,8.121,9.43,8.113,9.43
		c0.002,0,0.003,0.001,0.006,0.001C8.125,9.432,8.131,9.428,8.138,9.427z M6.105,8.107c-0.112,0.237,0,0.333,0.249,0.215
		c0.249-0.119,0.4,0.003,0.336,0.271C6.625,8.86,6.747,8.947,6.96,8.786c0.026-0.02,0.051-0.036,0.076-0.048
		C7.04,8.736,7.043,8.736,7.048,8.733c0.02-0.009,0.038-0.017,0.056-0.021C7.111,8.71,7.118,8.71,7.125,8.709
		c0.013-0.002,0.026-0.004,0.039-0.003c0.009,0,0.017,0.002,0.025,0.004c0.009,0.002,0.018,0.005,0.026,0.007
		c0.009,0.004,0.018,0.01,0.026,0.016c0.006,0.004,0.011,0.008,0.016,0.013c0.009,0.008,0.018,0.019,0.025,0.029
		C7.286,8.78,7.288,8.784,7.29,8.789c0.008,0.014,0.015,0.029,0.02,0.046c0.001,0.003,0.001,0.006,0.002,0.009
		c0.006,0.021,0.01,0.042,0.012,0.066c0.002,0.021,0.004,0.043,0.003,0.068c0,0,0-0.001,0-0.001c0,0.001,0,0.001,0,0.002
		c-0.006,0.156,0.036,0.24,0.105,0.247C7.438,9.226,7.44,9.228,7.445,9.228C7.492,9.226,7.55,9.191,7.614,9.118
		C7.68,9.043,7.745,9.007,7.803,9.004c0,0,0,0,0,0c0.001,0,0.002,0,0.004-0.001c0.001,0,0.004,0,0.005,0
		c0.003,0,0.006,0.001,0.009,0.002c0.002,0.001,0.004,0.001,0.006,0.001c0,0-0.001,0-0.001,0c0.079,0.007,0.142,0.082,0.163,0.222
		C8.023,9.479,8.164,9.5,8.297,9.274c0.058-0.097,0.124-0.146,0.188-0.153c-0.001,0-0.003,0-0.004,0.001
		C8.485,9.121,8.489,9.12,8.494,9.119c0.003-0.001,0.007-0.002,0.01-0.002c0,0,0.001,0,0.003,0c0,0,0.002,0.001,0.003,0.001l0,0
		c0.075,0.004,0.146,0.068,0.191,0.194C8.79,9.559,8.938,9.549,9.031,9.291c0.092-0.259,0.286-0.279,0.429-0.043
		C9.52,9.346,9.581,9.396,9.633,9.404c0.007,0.001,0.015,0.002,0.022,0.002C9.718,9.4,9.767,9.33,9.786,9.192
		C9.822,8.927,10,8.871,10.182,9.066c0.073,0.078,0.137,0.114,0.188,0.118c0.006,0,0.012-0.001,0.018-0.001
		c0.065-0.008,0.104-0.081,0.094-0.22c-0.001-0.02,0-0.036,0.001-0.052h0.002c0.003-0.079,0.025-0.137,0.061-0.172
		c0.001-0.001,0.002-0.001,0.002-0.002c0.01-0.009,0.021-0.016,0.034-0.021c0.008-0.004,0.017-0.006,0.027-0.008
		c0.005-0.001,0.011-0.003,0.017-0.003c0.056-0.005,0.123,0.018,0.197,0.074c0.096,0.07,0.17,0.087,0.217,0.061
		c0.054-0.029,0.071-0.114,0.037-0.25c-0.056-0.222,0.045-0.338,0.229-0.289c0.026,0.007,0.053,0.018,0.083,0.031
		c0.03,0.015,0.059,0.025,0.084,0.033c0.005,0.001,0.009,0.001,0.014,0.003c0.019,0.004,0.038,0.008,0.053,0.009
		c0.009,0,0.015-0.002,0.022-0.003c0.011-0.001,0.022-0.001,0.031-0.004c0.003-0.001,0.004-0.003,0.007-0.004
		c0.069-0.03,0.078-0.129,0.007-0.279c-0.118-0.249,0.005-0.399,0.271-0.336c0.162,0.039,0.255,0.008,0.27-0.067
		c0.01-0.05-0.013-0.119-0.078-0.204c-0.101-0.133-0.104-0.248-0.028-0.312c0.046-0.038,0.12-0.058,0.219-0.055
		c0.135,0.005,0.218-0.025,0.243-0.077c0.005-0.011,0.006-0.022,0.007-0.035c0-0.003,0.002-0.005,0.001-0.007
		c-0.002-0.047-0.037-0.104-0.109-0.168c-0.047-0.041-0.08-0.083-0.098-0.123c-0.054-0.119,0.021-0.22,0.208-0.248
		c0.102-0.016,0.163-0.048,0.188-0.09c0.037-0.062-0.007-0.142-0.142-0.223c-0.225-0.134-0.208-0.315,0.038-0.404
		c0.122-0.043,0.18-0.101,0.177-0.159c-0.001-0.061-0.067-0.122-0.199-0.168c-0.258-0.093-0.278-0.286-0.043-0.429
		c0.147-0.09,0.192-0.181,0.14-0.246c-0.031-0.039-0.096-0.068-0.195-0.082c-0.232-0.031-0.305-0.171-0.188-0.328
		c0.017-0.022,0.037-0.045,0.062-0.068c0.024-0.022,0.045-0.045,0.063-0.066c0.119-0.147,0.056-0.25-0.165-0.236
		c-0.22,0.013-0.311-0.103-0.23-0.267c0.001-0.002,0.003-0.005,0.004-0.006c0.011-0.022,0.024-0.044,0.042-0.068
		c0.004-0.005,0.006-0.01,0.01-0.015c0.013-0.02,0.026-0.039,0.035-0.056c0.081-0.157-0.011-0.237-0.233-0.181
		c-0.253,0.064-0.369-0.077-0.257-0.314c0.112-0.236,0-0.333-0.249-0.215c-0.249,0.119-0.4-0.003-0.336-0.271
		c0.064-0.267-0.058-0.354-0.271-0.193c-0.026,0.019-0.051,0.035-0.075,0.048c-0.004,0.001-0.008,0.003-0.012,0.005
		c-0.019,0.009-0.038,0.016-0.056,0.021c-0.007,0.002-0.015,0.002-0.022,0.003c-0.013,0.002-0.026,0.003-0.039,0.003
		c-0.008,0-0.017-0.003-0.025-0.004c-0.009-0.002-0.018-0.004-0.026-0.008c-0.01-0.004-0.019-0.009-0.027-0.015
		c-0.005-0.004-0.01-0.008-0.015-0.013c-0.009-0.008-0.018-0.018-0.025-0.029c-0.002-0.004-0.005-0.009-0.007-0.013
		c-0.008-0.014-0.015-0.029-0.02-0.046c-0.001-0.003-0.001-0.006-0.002-0.009c-0.006-0.02-0.01-0.042-0.012-0.066
		c-0.002-0.021-0.004-0.043-0.003-0.068c0.01-0.268-0.118-0.33-0.286-0.14c-0.167,0.191-0.335,0.142-0.372-0.11
		C9.701,1.674,9.561,1.653,9.428,1.879C9.294,2.104,9.112,2.087,9.023,1.841C8.935,1.594,8.787,1.604,8.694,1.863
		C8.602,2.122,8.408,2.142,8.266,1.907c-0.144-0.235-0.291-0.21-0.327,0.054C7.903,2.226,7.725,2.283,7.542,2.087
		c-0.182-0.196-0.317-0.149-0.3,0.104c0.001,0.02,0,0.035-0.001,0.052H7.239C7.236,2.322,7.214,2.38,7.179,2.415
		C7.178,2.416,7.176,2.416,7.176,2.417c-0.01,0.009-0.021,0.016-0.033,0.021C7.134,2.442,7.125,2.445,7.116,2.446
		C7.11,2.448,7.104,2.45,7.099,2.45C7.043,2.455,6.976,2.431,6.901,2.376C6.806,2.306,6.73,2.289,6.684,2.314
		C6.63,2.344,6.612,2.429,6.646,2.564c0.057,0.222-0.045,0.337-0.229,0.289C6.392,2.846,6.365,2.836,6.335,2.822
		C6.305,2.808,6.277,2.797,6.251,2.789C6.246,2.788,6.242,2.788,6.236,2.787C6.218,2.782,6.199,2.778,6.184,2.778
		c-0.009,0-0.015,0.002-0.022,0.003C6.15,2.782,6.139,2.782,6.13,2.785c-0.004,0-0.005,0.002-0.007,0.003
		C6.054,2.819,6.044,2.917,6.116,3.067c0.118,0.249-0.005,0.4-0.271,0.336C5.683,3.365,5.589,3.395,5.575,3.471
		C5.564,3.521,5.588,3.59,5.652,3.675c0.101,0.133,0.104,0.248,0.028,0.313c-0.046,0.038-0.12,0.058-0.219,0.055
		C5.327,4.037,5.244,4.066,5.219,4.119c-0.005,0.01-0.007,0.022-0.007,0.035c0,0.003-0.002,0.005-0.001,0.008
		c0.002,0.046,0.038,0.104,0.11,0.167c0.047,0.042,0.08,0.083,0.098,0.123C5.471,4.571,5.396,4.672,5.209,4.7
		C5.107,4.716,5.046,4.749,5.021,4.79C4.984,4.851,5.029,4.933,5.163,5.013c0.226,0.133,0.209,0.315-0.038,0.404
		c-0.121,0.042-0.18,0.101-0.177,0.159c0.001,0.061,0.067,0.122,0.198,0.168C5.405,5.837,5.425,6.03,5.19,6.174
		c-0.146,0.09-0.192,0.181-0.14,0.246c0.03,0.039,0.096,0.068,0.195,0.082C5.477,6.532,5.55,6.672,5.434,6.829
		C5.417,6.851,5.396,6.874,5.372,6.896C5.348,6.919,5.327,6.942,5.31,6.963C5.19,7.11,5.253,7.213,5.474,7.199
		c0.22-0.013,0.312,0.103,0.231,0.268C5.704,7.469,5.702,7.471,5.701,7.473C5.69,7.495,5.677,7.517,5.659,7.541
		c-0.004,0.006-0.006,0.01-0.01,0.017C5.636,7.576,5.623,7.595,5.614,7.612C5.534,7.769,5.626,7.849,5.848,7.793
		C6.102,7.729,6.217,7.87,6.105,8.107z M9.234,9.083c0.003,0,0.005-0.001,0.007-0.001c0.008,0,0.017,0.003,0.025,0.005
		C9.256,9.085,9.246,9.083,9.234,9.083z M9.961,8.951c0.005,0,0.01-0.004,0.015-0.004c0.003,0,0.006,0.001,0.007,0.001
		C9.976,8.948,9.968,8.95,9.961,8.951z M8.248,4.93l0.614-1.245L9.476,4.93l1.374,0.2L9.856,6.098l0.235,1.368L8.862,6.821
		L7.633,7.466l0.235-1.368L6.874,5.13L8.248,4.93z M13.401,6.771c-0.023,0.041-0.051,0.082-0.085,0.123
		c0.021,0.193-0.024,0.349-0.051,0.418c-0.03,0.08-0.115,0.261-0.306,0.405c-0.01,0.156-0.057,0.278-0.092,0.348
		c-0.058,0.116-0.139,0.213-0.236,0.292v0.831h18.331v23.296c0,0.627-0.444,1.566-1.109,1.566h-19.35V17.702l-1.715-1.056
		l-0.283,0.185v19.635h21.348c1.591,0,3.107-1.88,3.107-3.983V6.771H13.401z M14.386,17.402h12.321v-1.567H14.386V17.402z
		 M11.824,17.567V9.142c-0.005,0.001-0.009,0.004-0.015,0.005c-0.031,0.065-0.067,0.121-0.104,0.167
		c-0.153,0.196-0.378,0.318-0.625,0.34c-0.017,0.021-0.033,0.04-0.049,0.057c-0.171,0.182-0.402,0.282-0.652,0.282
		c-0.04,0-0.083-0.002-0.129-0.009c-0.175,0.157-0.394,0.231-0.6,0.231c-0.081,0-0.191-0.011-0.312-0.055
		c-0.2,0.123-0.395,0.139-0.479,0.139c-0.079,0-0.253-0.013-0.436-0.113c-0.118,0.042-0.225,0.053-0.305,0.053
		c-0.195,0-0.402-0.066-0.572-0.208c-0.037,0.004-0.071,0.006-0.104,0.006c-0.245,0-0.474-0.098-0.645-0.275
		c-0.024-0.026-0.05-0.055-0.075-0.088C6.465,9.658,6.229,9.536,6.069,9.333c-0.038-0.048-0.077-0.107-0.11-0.177
		c-0.02-0.004-0.038-0.013-0.058-0.019v8.43l2.872-1.876L11.824,17.567z"/></svg>