<svg version="1.0" xmlns="http://www.w3.org/2000/svg" viewBox="0 0 40 40" enable-background="new 0 0 40 40"><path fill="#cacaca" d="M33.195,5.01H6.712c-0.696,0-1.261,0.564-1.261,1.261c0,0.696,0.565,1.261,1.261,1.261h1.064v14.881
			c0,0.435,0.313,0.781,0.721,0.867c0.146,0.082,0.306,0.142,0.485,0.142h9.962v3.87l-5.82,5.821c-0.394,0.394-0.394,1.032,0,1.426
			c0.197,0.197,0.455,0.296,0.713,0.296c0.258,0,0.516-0.099,0.714-0.296l4.394-4.394v3.964c0,0.558,0.452,1.009,1.009,1.009
			c0.558,0,1.009-0.451,1.008-1.009v-4.107l4.679,4.678c0.196,0.197,0.455,0.296,0.713,0.296c0.259,0,0.517-0.099,0.714-0.296
			c0.394-0.394,0.394-1.032,0-1.427l-6.105-6.104v-3.728h9.964c0.139,0,0.271-0.028,0.393-0.08c0.361-0.153,0.615-0.512,0.616-0.929
			V7.532h1.261c0.696,0,1.261-0.564,1.261-1.261C34.456,5.575,33.892,5.01,33.195,5.01z M29.916,21.404H9.585V7.532h20.331V21.404z
			 M12.716,18.501c0.196,0,0.392-0.077,0.54-0.227l1.948-1.985l0.991,1.616c0.01,0.017,0.029,0.023,0.04,0.039
			c0.041,0.056,0.078,0.114,0.135,0.159c0.023,0.018,0.05,0.025,0.074,0.041c0.025,0.016,0.048,0.028,0.075,0.041
			c0.103,0.049,0.21,0.082,0.32,0.082h0h0c0.097,0,0.193-0.026,0.287-0.064c0.021-0.009,0.04-0.016,0.059-0.026
			c0.016-0.008,0.033-0.012,0.049-0.021c0.053-0.033,0.089-0.08,0.132-0.123c0.021-0.021,0.048-0.03,0.067-0.053l3.951-5
			l1.189,1.779c0.01,0.015,0.028,0.021,0.039,0.035c0.014,0.019,0.02,0.042,0.036,0.059c0.041,0.044,0.093,0.067,0.141,0.099
			c0.031,0.021,0.056,0.047,0.089,0.063c0.103,0.049,0.213,0.08,0.325,0.08c0.083,0,0.165-0.018,0.245-0.045
			c0.027-0.009,0.052-0.024,0.078-0.037c0.032-0.016,0.066-0.025,0.097-0.046c0.016-0.01,0.023-0.027,0.038-0.039
			c0.018-0.014,0.04-0.02,0.057-0.035l3.045-2.825c0.307-0.284,0.324-0.763,0.04-1.069c-0.285-0.306-0.763-0.324-1.069-0.04
			L23.34,13.18l-1.216-1.818c-0.232-0.348-0.703-0.44-1.05-0.209c-0.043,0.029-0.07,0.071-0.105,0.106
			c-0.125,0.047-0.244,0.115-0.333,0.228l-3.718,4.703l-0.93-1.517c-0.018-0.029-0.045-0.045-0.066-0.071
			c-0.019-0.023-0.027-0.051-0.049-0.073c-0.014-0.014-0.033-0.018-0.047-0.031c-0.042-0.035-0.085-0.062-0.133-0.086
			c-0.041-0.022-0.08-0.042-0.124-0.057c-0.048-0.015-0.095-0.021-0.146-0.027c-0.046-0.005-0.091-0.009-0.138-0.006
			c-0.049,0.004-0.096,0.016-0.145,0.03c-0.047,0.013-0.092,0.027-0.136,0.05c-0.019,0.009-0.04,0.01-0.058,0.021
			c-0.028,0.018-0.045,0.045-0.07,0.065c-0.024,0.019-0.052,0.028-0.074,0.05l-2.627,2.675c-0.293,0.298-0.288,0.777,0.01,1.07
			C12.333,18.429,12.524,18.501,12.716,18.501z"/></svg>