<svg version="1.0" xmlns="http://www.w3.org/2000/svg" viewBox="0 0 40 40" enable-background="new 0 0 40 40"><path fill="#7e7e7e" d="M25.562,14.403c1.308,0,2.367-1.06,2.367-2.367c0-1.308-1.06-2.367-2.367-2.367s-2.367,1.06-2.367,2.367
				C23.194,13.344,24.254,14.403,25.562,14.403z M29.513,22.413v-5.489c0-0.84-0.681-1.52-1.52-1.52h-3.576
				c0.148,0.28,0.233,0.6,0.233,0.939v6.479h-0.023c-0.102,0.67-0.535,1.232-1.127,1.515v3.811c0,0.647,0.523,1.171,1.171,1.171
				h1.781c0.647,0,1.172-0.523,1.172-1.171v-4.132c0-0.028-0.003-0.056-0.004-0.084h0.373
				C28.832,23.932,29.513,23.252,29.513,22.413z M31,14.403c1.308,0,2.368-1.06,2.368-2.367c0-1.308-1.061-2.367-2.368-2.367
				c-1.307,0-2.366,1.06-2.366,2.367C28.634,13.344,29.693,14.403,31,14.403z M33.432,15.404h-3.576
				c0.148,0.28,0.233,0.6,0.233,0.939v6.479h-0.023c-0.102,0.67-0.535,1.232-1.127,1.515v3.811c0,0.647,0.523,1.171,1.171,1.171
				h1.781c0.648,0,1.172-0.523,1.172-1.171v-4.132c0-0.028-0.002-0.056-0.004-0.084h0.373c0.839,0,1.52-0.68,1.52-1.52v-5.489
				C34.951,16.084,34.271,15.404,33.432,15.404z M14.242,14.403c1.307,0,2.367-1.06,2.367-2.367c0-1.308-1.06-2.367-2.367-2.367
				c-1.308,0-2.367,1.06-2.367,2.367C11.875,13.344,12.935,14.403,14.242,14.403z M15.154,22.519v-6.176
				c0-0.339,0.085-0.659,0.234-0.939h-3.576c-0.84,0-1.52,0.68-1.52,1.52v5.489c0,0.839,0.68,1.52,1.519,1.52h0.373
				c-0.002,0.028-0.004,0.056-0.004,0.084v4.132c0,0.647,0.524,1.171,1.171,1.171h1.781c0.648,0,1.172-0.523,1.172-1.171v-3.813
				C15.625,24.011,15.154,23.32,15.154,22.519z M8.906,14.403c1.308,0,2.367-1.06,2.367-2.367c0-1.308-1.06-2.367-2.367-2.367
				c-1.307,0-2.367,1.06-2.367,2.367C6.539,13.344,7.599,14.403,8.906,14.403z M9.818,22.519v-6.176
				c0-0.339,0.085-0.659,0.233-0.939H6.476c-0.84,0-1.52,0.68-1.52,1.52v5.489c0,0.839,0.68,1.52,1.519,1.52h0.374
				c-0.002,0.028-0.005,0.056-0.005,0.084v4.132c0,0.647,0.525,1.171,1.172,1.171h1.781c0.648,0,1.172-0.523,1.172-1.171v-3.813
				C10.289,24.011,9.818,23.32,9.818,22.519z M19.902,14.396c1.3,0,2.359-1.058,2.359-2.359c0-1.301-1.059-2.359-2.359-2.359
				c-1.301,0-2.36,1.059-2.36,2.359C17.542,13.337,18.601,14.396,19.902,14.396z M24.042,22.519v-6.176
				c0-0.361-0.138-0.69-0.362-0.939c-0.257-0.286-0.628-0.467-1.042-0.467h-5.47c-0.414,0-0.786,0.181-1.043,0.467
				c-0.225,0.249-0.363,0.578-0.363,0.939v6.176c0,0.701,0.517,1.283,1.189,1.388c0.07,0.011,0.143,0.019,0.216,0.019h0.746
				L17.89,24.25c-0.002,0.032-0.004,0.052-0.004,0.072v5.123c0,0.559,0.455,1.014,1.014,1.014h2.003
				c0.559,0,1.015-0.454,1.015-1.014v-5.123c0-0.021-0.002-0.043-0.004-0.063l-0.023-0.326l0.326-0.008h0.42
				c0.073,0,0.146-0.008,0.216-0.019C23.525,23.802,24.042,23.22,24.042,22.519z"/></svg>