<svg xmlns="http://www.w3.org/2000/svg" height="1024" width="1024"><path fill="#a0a0a0" d="M0 0h1024v1024H0z"/><g fill="#fff"><path d="M665.048 516.152c-28.833 65.893-91.72 121.006-152.701 121.006-74.455 0-128.543-54.47-157.375-120.339-167.678 86.856-146.548 306.666-146.548 306.666 0 30.097 23.705 34.461 51.56 34.461H764.28c27.902 0 51.68-4.388 51.68-34.46.023 0 16.74-220.455-150.913-307.334z"/><path d="M512.323 601.433c83.97 0 150.722-120.195 150.722-219.5 0-99.328-68.064-179.84-152.034-179.84s-152.057 80.512-152.057 179.84 69.375 219.5 153.37 219.5z"/></g></svg>